<svg width="7" height="17" viewBox="0 0 7 17" fill="none" xmlns="http://www.w3.org/2000/svg">
<path d="M6.79542 15.1654L6.57392 16.1356C5.91085 16.4174 5.37982 16.6306 4.9851 16.7784C4.54026 16.934 4.07426 17.0087 3.60643 16.9992C2.80279 16.9992 2.17663 16.7875 1.7308 16.3686C1.51526 16.1714 1.34341 15.9251 1.22773 15.6477C1.11205 15.3702 1.05545 15.0686 1.06205 14.7648C1.06203 14.507 1.07863 14.2495 1.11174 13.9941C1.14582 13.7306 1.19978 13.4351 1.27361 13.1031L2.10422 9.95182C2.17805 9.6472 2.24621 9.36542 2.29022 9.09431C2.33826 8.85139 2.36347 8.60392 2.36547 8.35561C2.36547 7.95351 2.2888 7.67174 2.13404 7.51333C1.97927 7.35493 1.68395 7.27573 1.24095 7.27573C1.01716 7.27739 0.794774 7.31381 0.58072 7.38387C0.354963 7.45546 0.161863 7.52552 0 7.58949L0.221497 6.61775C0.764828 6.38015 1.28544 6.17707 1.78334 6.00851C2.23881 5.84649 2.71484 5.7607 3.19467 5.75415C3.99263 5.75415 4.6079 5.96129 5.04048 6.37558C5.2529 6.5764 5.42125 6.82517 5.53344 7.10405C5.64563 7.38292 5.69887 7.68498 5.68935 7.98854C5.68935 8.12562 5.67515 8.36627 5.64392 8.71201C5.6183 9.03348 5.56265 9.35137 5.47779 9.6609L4.65144 12.7985C4.5847 13.0498 4.52365 13.3392 4.4697 13.6636C4.42451 13.9051 4.39792 14.1501 4.39019 14.3962C4.39019 14.8136 4.4768 15.0969 4.65002 15.2492C4.82324 15.4015 5.12567 15.4746 5.55446 15.4746C5.78575 15.4694 6.01538 15.4315 6.23741 15.3619C6.42786 15.3119 6.61441 15.2462 6.79542 15.1654ZM6.99988 1.98448C7.00285 2.24839 6.95277 2.50989 6.85305 2.75117C6.75333 2.99245 6.60631 3.20784 6.42199 3.38268C6.04702 3.76545 5.54665 3.97446 5.02912 3.96451C4.51058 3.97517 4.0087 3.76802 3.63056 3.38725C3.44423 3.21287 3.29551 2.99706 3.19473 2.75482C3.09396 2.51258 3.04355 2.24972 3.047 1.98448C3.04515 1.7195 3.09628 1.45718 3.19695 1.21519C3.29761 0.973209 3.44548 0.757191 3.63056 0.581703C4.0117 0.207526 4.50962 0 5.02628 0C5.54293 0 6.04086 0.207526 6.42199 0.581703C6.60583 0.757939 6.75248 0.974243 6.85214 1.21615C6.95179 1.45807 7.00216 1.72001 6.99988 1.98448Z" fill="#0D0374"/>
</svg>
