<?xml version="1.0" encoding="UTF-8" standalone="no"?>
<svg
   xmlns:dc="http://purl.org/dc/elements/1.1/"
   xmlns:cc="http://creativecommons.org/ns#"
   xmlns:rdf="http://www.w3.org/1999/02/22-rdf-syntax-ns#"
   xmlns:svg="http://www.w3.org/2000/svg"
   xmlns="http://www.w3.org/2000/svg"
   xmlns:sodipodi="http://sodipodi.sourceforge.net/DTD/sodipodi-0.dtd"
   xmlns:inkscape="http://www.inkscape.org/namespaces/inkscape"
   width="50.372025mm"
   height="13.830541mm"
   viewBox="0 0 50.372024 13.830541"
   version="1.1"
   id="svg848"
   inkscape:version="1.0.2 (1.0.2+r75+1)"
   sodipodi:docname="logo_and_tagline.svg">
  <defs
     id="defs842">
    <clipPath
       id="clip0">
      <rect
         width="33.7421"
         height="33.139599"
         fill="#ffffff"
         transform="translate(13.125,13.347)"
         id="rect8"
         x="0"
         y="0" />
    </clipPath>
    <clipPath
       id="clip0-3">
      <rect
         width="151.429"
         height="30"
         fill="#ffffff"
         id="rect10514"
         x="0"
         y="0" />
    </clipPath>
  </defs>
  <sodipodi:namedview
     id="base"
     pagecolor="#ffffff"
     bordercolor="#666666"
     borderopacity="1.0"
     inkscape:pageopacity="0.0"
     inkscape:pageshadow="2"
     inkscape:zoom="4.0842575"
     inkscape:cx="79.429521"
     inkscape:cy="12.781244"
     inkscape:document-units="mm"
     inkscape:current-layer="layer1"
     inkscape:document-rotation="0"
     showgrid="false"
     inkscape:window-width="1916"
     inkscape:window-height="1023"
     inkscape:window-x="0"
     inkscape:window-y="36"
     inkscape:window-maximized="1" />
  <metadata
     id="metadata845">
    <rdf:RDF>
      <cc:Work
         rdf:about="">
        <dc:format>image/svg+xml</dc:format>
        <dc:type
           rdf:resource="http://purl.org/dc/dcmitype/StillImage" />
        <dc:title />
      </cc:Work>
    </rdf:RDF>
  </metadata>
  <g
     inkscape:label="Layer 1"
     inkscape:groupmode="layer"
     id="layer1"
     transform="translate(-38.253901,-47.04725)">
    <g
       id="g1505"
       transform="matrix(0.50312767,0,0,0.50520787,73.043122,15.574893)">
      <circle
         cx="-16.807045"
         cy="70.284004"
         r="7.9375"
         fill="#0040a3"
         id="circle2"
         style="stroke-width:0.264583" />
      <g
         clip-path="url(#clip0)"
         id="g6"
         transform="matrix(0.26458333,0,0,0.26458333,-24.744545,62.346506)">
        <path
           d="m 37.6423,17.5604 2.2418,-2.0809 c 0.2406,-0.2222 0.3829,-0.5306 0.3956,-0.8575 0.0127,-0.3268 -0.1052,-0.6453 -0.3278,-0.8854 -0.1102,-0.1188 -0.2429,-0.2149 -0.3903,-0.2826 -0.1474,-0.0678 -0.3068,-0.1058 -0.4689,-0.1121 -0.3276,-0.0127 -0.6468,0.105 -0.8874,0.3271 l -2.2418,2.081 c -0.2413,0.2221 -0.3842,0.5308 -0.3974,0.8581 -0.0132,0.3274 0.1044,0.6465 0.327,0.8873 0.2227,0.2408 0.532,0.3834 0.86,0.3966 0.3281,0.0132 0.6479,-0.1042 0.8892,-0.3264 z m 4.9059,12.2778 -1.1417,1.0405 c -0.2413,0.2221 -0.3843,0.5308 -0.3975,0.8581 -0.0132,0.3274 0.1045,0.6465 0.3271,0.8873 0.2226,0.2408 0.532,0.3834 0.86,0.3966 0.328,0.0132 0.6478,-0.1042 0.8891,-0.3264 l 1.1418,-1.0405 c 0.2406,-0.2221 0.3829,-0.5305 0.3956,-0.8574 0.0127,-0.3268 -0.1052,-0.6453 -0.3278,-0.8854 -0.2226,-0.2401 -0.5317,-0.3821 -0.8593,-0.3947 -0.3275,-0.0127 -0.6467,0.105 -0.8873,0.3271 z m 2.2366,-15.5137 -15.724,14.5408 c -0.1191,0.1104 -0.2589,0.1962 -0.4113,0.2527 -0.1523,0.0564 -0.3144,0.0823 -0.4768,0.0763 -0.1624,-0.006 -0.3221,-0.0439 -0.4698,-0.1115 -0.1477,-0.0676 -0.2807,-0.1636 -0.3913,-0.2825 -0.1105,-0.1189 -0.1966,-0.2583 -0.2531,-0.4104 -0.0566,-0.152 -0.0826,-0.3137 -0.0765,-0.4758 0.006,-0.162 0.044,-0.3214 0.1117,-0.4688 0.0678,-0.1474 0.164,-0.2801 0.2831,-0.3904 l 6.8089,-6.2794 c 0.2413,-0.2221 0.3843,-0.5308 0.3974,-0.8581 0.0132,-0.3274 -0.1044,-0.6465 -0.327,-0.8873 -0.2226,-0.2407 -0.532,-0.3834 -0.86,-0.3966 -0.328,-0.0132 -0.6479,0.1042 -0.8892,0.3264 l -9.9422,9.1771 c -0.1191,0.1103 -0.2589,0.1962 -0.4112,0.2526 -0.1524,0.0565 -0.3144,0.0824 -0.4769,0.0764 -0.1624,-0.0061 -0.322,-0.044 -0.4698,-0.1116 -0.1477,-0.0676 -0.2807,-0.1636 -0.3912,-0.2824 -0.1106,-0.1189 -0.1966,-0.2584 -0.2532,-0.4104 -0.0566,-0.1521 -0.0826,-0.3137 -0.0765,-0.4758 0.006,-0.1621 0.044,-0.3214 0.1118,-0.4688 0.0677,-0.1474 0.1639,-0.2801 0.283,-0.3905 l 7.5701,-6.9816 c 0.2413,-0.2222 0.3842,-0.5309 0.3974,-0.8582 0.0132,-0.3273 -0.1044,-0.6465 -0.327,-0.8873 -0.2226,-0.2407 -0.532,-0.3834 -0.86,-0.3966 -0.328,-0.0131 -0.6479,0.1043 -0.8892,0.3264 l -5.6879,5.2493 c -1.933,0.7231 -3.6522,1.9204 -4.999,3.4815 -1.3468,1.5611 -2.2778,3.4356 -2.7071,5.4504 -0.4292,2.0149 -0.3429,4.1052 0.2511,6.078 0.5939,1.9728 1.6763,3.7645 3.1473,5.2097 1.471,1.4451 3.2831,2.4973 5.2691,3.0592 1.986,0.562 4.0818,0.6156 6.0941,0.156 2.0122,-0.4596 3.876,-1.4176 5.4193,-2.7857 1.5433,-1.368 2.7163,-3.102 3.4108,-5.0418 l 3.0865,-2.8405 c 0.1279,-0.1081 0.2325,-0.2408 0.3076,-0.3903 0.0751,-0.1495 0.1191,-0.3126 0.1293,-0.4796 0.0102,-0.1669 -0.0136,-0.3341 -0.07,-0.4916 -0.0563,-0.1575 -0.144,-0.302 -0.2579,-0.4247 -0.1138,-0.1227 -0.2514,-0.2212 -0.4044,-0.2894 -0.153,-0.0682 -0.3182,-0.1048 -0.4858,-0.1076 -0.1675,-0.0027 -0.3339,0.0284 -0.4891,0.0916 -0.1552,0.0631 -0.2959,0.157 -0.4137,0.2759 l -7.471,6.8985 c -0.2413,0.2221 -0.5612,0.3395 -0.8892,0.3263 -0.328,-0.0131 -0.6374,-0.1558 -0.86,-0.3966 -0.2226,-0.2407 -0.3402,-0.5599 -0.327,-0.8872 0.0132,-0.3274 0.1561,-0.6361 0.3974,-0.8582 l 14.697,-13.5888 c 0.1191,-0.11 0.2154,-0.2423 0.2833,-0.3894 0.0678,-0.1471 0.106,-0.3061 0.1123,-0.468 0.0063,-0.1618 -0.0194,-0.3233 -0.0757,-0.4752 -0.0562,-0.1519 -0.1419,-0.2913 -0.2521,-0.4102 -0.1103,-0.1189 -0.2429,-0.2149 -0.3903,-0.2826 -0.1474,-0.0678 -0.3068,-0.1059 -0.469,-0.1122 -0.1621,-0.0062 -0.324,0.0194 -0.4762,0.0756 -0.1523,0.0561 -0.2919,0.1416 -0.4111,0.2516 L 29.0451,35.5765 c -0.3178,0.8332 -0.9124,1.5325 -1.6845,1.9812 -0.7722,0.4486 -1.6751,0.6195 -2.5582,0.484 -0.8832,-0.1355 -1.693,-0.569 -2.2945,-1.2284 -0.6014,-0.6593 -0.9581,-1.5045 -1.0105,-2.3945 -0.0524,-0.8901 0.2027,-1.7712 0.7227,-2.4962 0.52,-0.7251 1.2734,-1.2502 2.1346,-1.4879 0.8611,-0.2377 1.7779,-0.1735 2.5974,0.1819 0.8194,0.3553 1.492,0.9804 1.9054,1.7708 L 46.4584,16.1402 c 0.2413,-0.2222 0.3842,-0.5309 0.3974,-0.8582 0.0132,-0.3273 -0.1044,-0.6465 -0.327,-0.8873 -0.2226,-0.2407 -0.532,-0.3834 -0.86,-0.3966 -0.328,-0.0131 -0.6479,0.1043 -0.8892,0.3264 z M 26.7303,41.1119 c 0.0949,-0.0188 0.1932,-0.0061 0.2801,0.0362 0.0869,0.0422 0.1576,0.1116 0.2013,0.1976 0.0438,0.0861 0.0581,0.184 0.0408,0.2789 -0.0173,0.0949 -0.0652,0.1816 -0.1364,0.2468 -0.0584,0.0574 -0.133,0.0955 -0.2137,0.1093 -1.9793,0.3868 -4.0319,0.008 -5.7416,-1.0595 -1.7097,-1.0675 -2.9487,-2.7439 -3.4656,-4.6892 -0.015,-0.0564 -0.0188,-0.1151 -0.0111,-0.173 0.0077,-0.0578 0.0267,-0.1135 0.056,-0.164 0.0293,-0.0505 0.0683,-0.0947 0.1147,-0.1302 0.0464,-0.0354 0.0994,-0.0614 0.1559,-0.0765 0.0564,-0.015 0.1153,-0.0188 0.1733,-0.0111 0.0579,0.0077 0.1138,0.0267 0.1644,0.0559 0.0506,0.0292 0.0949,0.0681 0.1304,0.1145 0.0356,0.0463 0.0616,0.0991 0.0767,0.1555 0.46,1.7268 1.5601,3.2149 3.0776,4.1633 1.5176,0.9484 3.3395,1.2863 5.0972,0.9455 z M 19.2593,30.707 c -0.3963,0.6892 -0.6731,1.4402 -0.8185,2.2214 -0.0175,0.094 -0.0651,0.1798 -0.1356,0.2446 -0.0518,0.0461 -0.1134,0.08 -0.1803,0.0989 -0.0668,0.0189 -0.1371,0.0224 -0.2055,0.0103 -0.0576,-0.0106 -0.1126,-0.0325 -0.1618,-0.0645 -0.0491,-0.032 -0.0914,-0.0733 -0.1243,-0.1217 -0.033,-0.0484 -0.056,-0.1029 -0.0678,-0.1602 -0.0117,-0.0573 -0.0119,-0.1164 -6e-4,-0.1738 0.1646,-0.8783 0.4766,-1.7226 0.9228,-2.4972 0.0291,-0.0509 0.0681,-0.0954 0.1147,-0.1311 0.0465,-0.0357 0.0997,-0.0618 0.1565,-0.0768 0.0568,-0.015 0.1159,-0.0186 0.1741,-0.0106 0.0581,0.008 0.1141,0.0274 0.1647,0.0572 0.0956,0.0576 0.1657,0.1494 0.1957,0.2567 0.03,0.1074 0.0178,0.2221 -0.0341,0.3208 z"
           fill="#00e3bb"
           id="path4" />
      </g>
    </g>
    <path
       d="m 38.26514,54.341209 1.142386,-6.600182 c 0.01325,-0.169569 0.09059,-0.327075 0.215472,-0.438803 0.124883,-0.111728 0.287385,-0.168805 0.452715,-0.159002 h 2.511108 c 0.280193,0 0.431085,0.143913 0.431085,0.398534 0,0.08856 -0.03233,0.188201 -0.08623,0.531384 -0.01474,0.147473 -0.08496,0.283207 -0.19566,0.378317 -0.110701,0.09511 -0.25318,0.142081 -0.397086,0.130921 h -1.422586 c -0.03421,-0.0025 -0.068,0.0089 -0.09417,0.03162 -0.02617,0.02275 -0.04265,0.05509 -0.04593,0.09015 l -0.247888,1.41923 v 0.03098 c 0,0.05535 0.0431,0.07972 0.107765,0.07972 h 1.131623 c 0.280194,0 0.431086,0.141711 0.431086,0.407405 -0.01656,0.170974 -0.04175,0.340942 -0.07543,0.509217 -0.01582,0.150151 -0.08737,0.288264 -0.199787,0.385578 -0.112395,0.09734 -0.257016,0.146394 -0.403754,0.136974 h -1.120828 c -0.03379,-0.0027 -0.06744,0.0069 -0.09501,0.02717 -0.0276,0.02024 -0.04736,0.04982 -0.05588,0.08353 l -0.269425,1.53879 c -0.007,0.02521 -0.01058,0.05128 -0.01077,0.0775 0,0.06641 0.03233,0.08856 0.107765,0.08856 h 1.411817 c 0.290989,0 0.44188,0.132847 0.44188,0.387456 -0.01516,0.175524 -0.044,0.349514 -0.08623,0.520303 -0.0047,0.07498 -0.02371,0.148299 -0.05607,0.215662 -0.03238,0.06739 -0.07742,0.127502 -0.13253,0.1769 -0.05511,0.0494 -0.119195,0.0871 -0.188569,0.11094 -0.06935,0.02381 -0.142637,0.03331 -0.215582,0.02789 h -2.5111 c -0.323318,0 -0.484976,-0.154967 -0.484976,-0.431747 -0.0018,-0.05191 0.0018,-0.103849 0.01078,-0.154993 z"
       fill="#0040a3"
       id="path10492"
       style="stroke-width:0.264583" />
    <path
       d="m 42.67371,54.894744 c -0.237093,-0.05535 -0.344885,-0.166053 -0.344885,-0.365337 0.01167,-0.194178 0.04051,-0.386847 0.08623,-0.575654 0.0051,-0.06416 0.02265,-0.126656 0.05154,-0.183779 0.02889,-0.05715 0.06858,-0.107818 0.116734,-0.14904 0.04815,-0.04122 0.103823,-0.07218 0.163751,-0.09107 0.05993,-0.01886 0.122899,-0.02532 0.185287,-0.01892 h 1.034601 c 0.560414,0 0.81907,-0.254635 0.862197,-0.597799 0.0077,-0.08464 0.0113,-0.169624 0.01077,-0.254609 0.0015,-0.124751 -0.02273,-0.248417 -0.07101,-0.362876 -0.04829,-0.114485 -0.119592,-0.21717 -0.209206,-0.30136 l -0.819071,-0.910008 c -0.441854,-0.46273 -0.668179,-0.918845 -0.668179,-1.483434 0.0054,-0.208682 0.03067,-0.416317 0.07543,-0.619943 0.172455,-1.184534 1.045395,-1.904108 2.468007,-1.904108 0.397616,-0.01639 0.795734,0.01707 1.185492,0.09964 0.226325,0.06642 0.344858,0.177128 0.344858,0.387464 -0.01926,0.19032 -0.05167,0.378991 -0.097,0.564591 -0.0038,0.06369 -0.01998,0.125945 -0.04773,0.183028 -0.02773,0.05709 -0.06644,0.107826 -0.113745,0.149178 -0.04728,0.04135 -0.102235,0.07247 -0.161528,0.09147 -0.05929,0.01901 -0.121708,0.02551 -0.183515,0.01914 H 45.47578 c -0.474187,0 -0.732843,0.221403 -0.786739,0.575656 -0.01439,0.07287 -0.02162,0.14705 -0.02154,0.221409 0.0046,0.118607 0.03281,0.234995 0.08287,0.34199 0.05003,0.106989 0.120862,0.202345 0.208122,0.280159 l 0.829839,0.88564 c 0.199496,0.202485 0.357584,0.443918 0.464926,0.710088 0.107341,0.266145 0.161792,0.551683 0.160152,0.839788 -0.0017,0.211455 -0.01976,0.42246 -0.0539,0.631005 -0.16166,1.206685 -1.023831,1.915186 -2.478749,1.915186 -0.403939,0.02458 -0.809254,-0.0015 -1.207055,-0.0775 z"
       fill="#0040a3"
       id="path10494"
       style="stroke-width:0.264583" />
    <path
       d="m 47.750508,54.341235 0.948399,-5.493149 c 0.01042,-0.05486 0.01762,-0.11031 0.02154,-0.166058 0,-0.01308 -0.0025,-0.02605 -0.0074,-0.03813 -0.0049,-0.01209 -0.01201,-0.02306 -0.02101,-0.03231 -0.009,-0.0093 -0.01971,-0.0166 -0.03149,-0.02161 -0.01175,-0.005 -0.02437,-0.0076 -0.03712,-0.0076 h -0.743611 c -0.290989,0 -0.431086,-0.143912 -0.431086,-0.398531 0.01299,-0.172167 0.04186,-0.342675 0.0862,-0.509238 0.01318,-0.149937 0.08215,-0.28888 0.19259,-0.387871 0.110411,-0.09899 0.253762,-0.150397 0.400156,-0.143515 h 3.235325 c 0.28022,0 0.431086,0.143918 0.431086,0.376398 -0.0132,0.186706 -0.04204,0.371896 -0.0862,0.553522 -0.01103,0.14492 -0.07713,0.279559 -0.184018,0.374843 -0.106865,0.09528 -0.245957,0.143558 -0.387165,0.134392 h -0.732869 c -0.0354,-0.0027 -0.07051,0.0083 -0.09843,0.03082 -0.02791,0.02253 -0.04665,0.05497 -0.05244,0.09095 l -0.969962,5.637072 c -0.06466,0.376397 -0.258657,0.58674 -0.625078,0.58674 h -0.409549 c -0.323321,0 -0.517287,-0.166052 -0.517287,-0.442833 8e-5,-0.04863 0.0066,-0.09705 0.01939,-0.143907 z"
       fill="#0040a3"
       id="path10496"
       style="stroke-width:0.264583" />
    <path
       d="m 51.044756,54.341209 1.142391,-6.600182 c 0.01323,-0.169569 0.09057,-0.327075 0.215451,-0.438803 0.124883,-0.111728 0.28739,-0.168805 0.452728,-0.159002 h 2.511081 c 0.28022,0 0.431112,0.143913 0.431112,0.398534 0,0.08856 -0.03233,0.188201 -0.08623,0.531384 -0.01476,0.147473 -0.08496,0.283207 -0.19566,0.378317 -0.110702,0.09511 -0.25318,0.142081 -0.397087,0.130921 h -1.422585 c -0.03421,-0.0025 -0.068,0.0089 -0.09417,0.03162 -0.02617,0.02275 -0.04268,0.05509 -0.04596,0.09015 l -0.247862,1.41923 v 0.03098 c 0,0.05535 0.0431,0.07972 0.107765,0.07972 h 1.131597 c 0.28022,0 0.431112,0.141711 0.431112,0.407405 -0.01656,0.170974 -0.04175,0.340942 -0.07546,0.509217 -0.0158,0.150151 -0.08734,0.288264 -0.19976,0.385578 -0.112421,0.09734 -0.257016,0.146394 -0.403754,0.136974 h -1.120828 c -0.03381,-0.0027 -0.06744,0.0069 -0.09504,0.02717 -0.02757,0.02024 -0.04733,0.04982 -0.05585,0.08353 l -0.269425,1.53879 c -0.007,0.02521 -0.01058,0.05128 -0.01077,0.0775 0,0.06641 0.03233,0.08856 0.107765,0.08856 h 1.411817 c 0.290989,0 0.441854,0.132847 0.441854,0.387456 -0.01513,0.175524 -0.04397,0.349514 -0.0862,0.520303 -0.0047,0.07498 -0.02371,0.148299 -0.05607,0.215662 -0.03239,0.06739 -0.07742,0.127502 -0.132529,0.1769 -0.05511,0.0494 -0.119195,0.0871 -0.188569,0.11094 -0.06935,0.02381 -0.142637,0.03331 -0.215582,0.02789 H 51.51893 c -0.323321,0 -0.484955,-0.154967 -0.484955,-0.431747 -0.0018,-0.05191 0.0018,-0.103849 0.01077,-0.154993 z"
       fill="#0040a3"
       id="path10498"
       style="stroke-width:0.264583" />
    <path
       d="m 60.20897,49.313022 -0.107765,0.664229 c -0.04744,0.381132 -0.190632,0.743029 -0.415501,1.050105 -0.22487,0.307049 -0.523664,0.548719 -0.866987,0.701251 l 0.571182,2.402258 c 0.02133,0.08311 0.0322,0.168699 0.03233,0.254635 0.0064,0.0734 -0.0028,0.14732 -0.02688,0.21672 -0.0241,0.0694 -0.0626,0.132583 -0.112819,0.185209 -0.05019,0.05262 -0.110913,0.09342 -0.177985,0.119618 -0.06704,0.02617 -0.138827,0.03707 -0.210396,0.03199 h -0.420317 c -0.366422,0 -0.581952,-0.143933 -0.646616,-0.52033 l -0.431111,-2.313703 c -0.01077,-0.03323 -0.02154,-0.03323 -0.0431,-0.03323 h -0.323321 c -0.0058,-7.14e-4 -0.01172,-5.3e-5 -0.01728,0.0019 -0.0056,0.002 -0.01058,0.0052 -0.01474,0.0095 -0.0042,0.0043 -0.0073,0.0094 -0.0092,0.01514 -0.0019,0.0057 -0.0025,0.01177 -0.0019,0.01775 l -0.387985,2.236232 c -0.01214,0.160337 -0.08469,0.309483 -0.202247,0.41574 -0.117528,0.106283 -0.270775,0.161263 -0.427144,0.153273 h -0.398753 c -0.323321,0 -0.528082,-0.166053 -0.528082,-0.442807 0,-0.04429 0.01077,-0.09964 0.01077,-0.143933 l 1.120828,-6.478405 c 8.74e-4,-0.161203 0.05784,-0.316783 0.160602,-0.438602 0.102791,-0.12182 0.244608,-0.201843 0.399812,-0.225625 0.474663,-0.103195 0.959062,-0.151473 1.444176,-0.143921 1.131596,0 2.090763,0.34318 2.090763,1.671632 -0.0047,0.19913 -0.02482,0.397557 -0.06035,0.593375 z m -2.069227,-0.808135 c -0.14433,-0.0012 -0.288528,0.0099 -0.431085,0.0332 -0.08623,0 -0.11856,0.03321 -0.129329,0.121772 l -0.355653,2.005965 c -0.0021,0.0049 -0.0033,0.01016 -0.0033,0.0155 0,0.0053 0.0011,0.01061 0.0033,0.0155 0,0.06641 0.03233,0.07969 0.097,0.07969 h 0.334089 c 0.474213,0 0.797533,-0.199258 0.883735,-0.688578 l 0.16166,-0.91884 c 0.01188,-0.06207 0.01908,-0.124997 0.02156,-0.188204 -0.01077,-0.343183 -0.226325,-0.480454 -0.581978,-0.480454 z"
       fill="#0040a3"
       id="path10500"
       style="stroke-width:0.264583" />
    <path
       d="m 68.784123,54.341209 1.121039,-6.600193 c 0.0037,-0.083 0.02355,-0.164393 0.05821,-0.239477 0.03466,-0.07508 0.08361,-0.142359 0.143669,-0.197947 0.06006,-0.05559 0.13044,-0.09838 0.20664,-0.125908 0.07646,-0.02753 0.157162,-0.03925 0.238125,-0.03447 h 0.40931 c 0.323321,0 0.517525,0.177121 0.517525,0.464953 0,0.04428 0,0.08857 0,0.132852 l -1.142471,6.600193 c -0.06482,0.376396 -0.258762,0.58674 -0.62521,0.58674 h -0.40931 c -0.312738,0 -0.506678,-0.166053 -0.506678,-0.442833 -0.0098,-0.04725 -0.01349,-0.09565 -0.01085,-0.143907 z"
       fill="#0040a3"
       id="path10504"
       style="stroke-width:0.264583" />
    <path
       d="m 76.39936,49.52335 -0.54954,3.168367 c -0.334168,1.9041 -1.508918,2.313702 -2.931583,2.313702 -0.445029,0.0013 -0.889,-0.04318 -1.325562,-0.132821 -0.05212,-0.0019 -0.103452,-0.01471 -0.150813,-0.03778 -0.0471,-0.02307 -0.08943,-0.05588 -0.12356,-0.09636 -0.0344,-0.04048 -0.06033,-0.08781 -0.0762,-0.139012 -0.01588,-0.0512 -0.02117,-0.105172 -0.01588,-0.158591 0.0011,-0.07498 0.01191,-0.149463 0.03228,-0.22143 l 1.077912,-6.356635 c 0.0074,-0.160931 0.068,-0.314431 0.17198,-0.435182 0.103716,-0.120751 0.244475,-0.201537 0.398991,-0.229045 0.454554,-0.08993 0.916781,-0.130745 1.379538,-0.121772 1.217877,0 2.176991,0.321041 2.176991,1.726987 -0.0024,0.24126 -0.02408,0.481912 -0.06456,0.719576 z m -2.090738,-1.018474 c -0.10795,0 -0.301889,0.01107 -0.409574,0.02213 -0.107686,0.01107 -0.129382,0.03321 -0.14023,0.121772 l -0.829733,4.773581 c 0,0.02212 0,0.03321 0,0.04427 0,0.06644 0.04313,0.07752 0.107685,0.07752 0.10795,0.01106 0.237067,0.02212 0.345017,0.02212 0.221721,0.0094 0.438415,-0.06935 0.604838,-0.219869 0.166687,-0.150521 0.270404,-0.361209 0.289718,-0.588274 l 0.592667,-3.542538 c 0.01693,-0.07247 0.02408,-0.146947 0.02143,-0.221409 -0.01058,-0.356468 -0.204787,-0.493736 -0.581819,-0.493736 z"
       fill="#0040a3"
       id="path10506"
       style="stroke-width:0.264583" />
    <path
       d="m 76.476883,54.894744 c -0.237067,-0.05535 -0.344752,-0.166053 -0.344752,-0.365337 0.01164,-0.194178 0.04048,-0.386847 0.08625,-0.575654 0.005,-0.06416 0.02249,-0.126656 0.05133,-0.183779 0.0291,-0.05715 0.06879,-0.107818 0.116946,-0.14904 0.04815,-0.04122 0.103717,-0.07218 0.163512,-0.09107 0.06006,-0.01886 0.123032,-0.02532 0.185473,-0.01892 h 1.034521 c 0.560388,0 0.81915,-0.254635 0.862277,-0.597799 0.0077,-0.08464 0.01138,-0.169624 0.01085,-0.254609 0.0013,-0.124751 -0.02275,-0.248417 -0.07117,-0.362876 -0.04815,-0.114485 -0.119591,-0.21717 -0.209285,-0.30136 l -0.818886,-0.910008 c -0.43127,-0.46273 -0.668337,-0.918845 -0.668337,-1.483434 0.0056,-0.208682 0.03069,-0.416317 0.07541,-0.619943 0.172509,-1.184534 1.045634,-1.904108 2.468034,-1.904108 0.397668,-0.01639 0.795866,0.01707 1.185597,0.09964 0.215636,0.06642 0.344752,0.177128 0.344752,0.387464 -0.01905,0.19032 -0.05159,0.378991 -0.09684,0.564591 -0.0037,0.06369 -0.02011,0.125945 -0.04789,0.183028 -0.02778,0.05709 -0.06641,0.107826 -0.11377,0.149178 -0.0471,0.04135 -0.10213,0.07247 -0.161396,0.09147 -0.05927,0.01901 -0.121709,0.02551 -0.183621,0.01914 h -1.0668 c -0.474133,0 -0.732896,0.221403 -0.786871,0.575656 -0.01429,0.07287 -0.02143,0.14705 -0.02143,0.221409 0.0045,0.118607 0.03281,0.234995 0.08281,0.34199 0.05001,0.106989 0.120915,0.202345 0.208228,0.280159 l 0.829733,0.88564 c 0.199496,0.202485 0.357717,0.443918 0.464873,0.710088 0.107421,0.266145 0.161925,0.551683 0.160337,0.839788 -0.0019,0.211455 -0.01984,0.42246 -0.05397,0.631005 -0.16166,1.206685 -1.023937,1.915186 -2.478881,1.915186 -0.403754,0.02458 -0.809096,-0.0015 -1.207029,-0.0775 z"
       fill="#0040a3"
       id="path10508"
       style="stroke-width:0.264583" />
    <text
       xml:space="preserve"
       style="font-style:normal;font-weight:normal;font-size:4.93889px;line-height:1.25;font-family:sans-serif;letter-spacing:0px;word-spacing:0px;fill:#000000;fill-opacity:1;stroke:none;stroke-width:0.264583"
       x="38.261131"
       y="60.07769"
       id="text11167"><tspan
         sodipodi:role="line"
         id="tspan11165"
         x="38.261131"
         y="60.07769"
         style="font-style:normal;font-variant:normal;font-weight:normal;font-stretch:normal;font-size:4.93889px;font-family:'Bevellier Variable';-inkscape-font-specification:'Bevellier Variable';stroke-width:0.264583">Decentralized Web Front Page</tspan></text>
  </g>
</svg>
