<svg width="60" height="60" viewBox="0 0 60 60" fill="none" xmlns="http://www.w3.org/2000/svg">
<circle cx="30" cy="30" r="30" fill="#0040A3"/>
<g clip-path="url(#clip0)">
<path d="M37.6423 17.5604L39.8841 15.4795C40.1247 15.2573 40.267 14.9489 40.2797 14.622C40.2924 14.2952 40.1745 13.9767 39.9519 13.7366C39.8417 13.6178 39.709 13.5217 39.5616 13.454C39.4142 13.3862 39.2548 13.3482 39.0927 13.3419C38.7651 13.3292 38.4459 13.4469 38.2053 13.669L35.9635 15.75C35.7222 15.9721 35.5793 16.2808 35.5661 16.6081C35.5529 16.9355 35.6705 17.2546 35.8931 17.4954C36.1158 17.7362 36.4251 17.8788 36.7531 17.892C37.0812 17.9052 37.401 17.7878 37.6423 17.5656V17.5604ZM42.5482 29.8382L41.4065 30.8787C41.1652 31.1008 41.0222 31.4095 41.009 31.7368C40.9958 32.0642 41.1135 32.3833 41.3361 32.6241C41.5587 32.8649 41.8681 33.0075 42.1961 33.0207C42.5241 33.0339 42.8439 32.9165 43.0852 32.6943L44.227 31.6538C44.4676 31.4317 44.6099 31.1233 44.6226 30.7964C44.6353 30.4696 44.5174 30.1511 44.2948 29.911C44.0722 29.6709 43.7631 29.5289 43.4355 29.5163C43.108 29.5036 42.7888 29.6213 42.5482 29.8434V29.8382ZM44.7848 14.3245L29.0608 28.8653C28.9417 28.9757 28.8019 29.0615 28.6495 29.118C28.4972 29.1744 28.3351 29.2003 28.1727 29.1943C28.0103 29.1883 27.8506 29.1504 27.7029 29.0828C27.5552 29.0152 27.4222 28.9192 27.3116 28.8003C27.2011 28.6814 27.115 28.542 27.0585 28.3899C27.0019 28.2379 26.9759 28.0762 26.982 27.9141C26.988 27.7521 27.026 27.5927 27.0937 27.4453C27.1615 27.2979 27.2577 27.1652 27.3768 27.0549L34.1857 20.7755C34.427 20.5534 34.57 20.2447 34.5831 19.9174C34.5963 19.59 34.4787 19.2709 34.2561 19.0301C34.0335 18.7894 33.7241 18.6467 33.3961 18.6335C33.0681 18.6203 32.7482 18.7377 32.5069 18.9599L22.5647 28.137C22.4456 28.2473 22.3058 28.3332 22.1535 28.3896C22.0011 28.4461 21.8391 28.472 21.6766 28.466C21.5142 28.4599 21.3546 28.422 21.2068 28.3544C21.0591 28.2868 20.9261 28.1908 20.8156 28.072C20.705 27.9531 20.619 27.8136 20.5624 27.6616C20.5058 27.5095 20.4798 27.3479 20.4859 27.1858C20.4919 27.0237 20.5299 26.8644 20.5977 26.717C20.6654 26.5696 20.7616 26.4369 20.8807 26.3265L28.4508 19.3449C28.6921 19.1227 28.835 18.814 28.8482 18.4867C28.8614 18.1594 28.7438 17.8402 28.5212 17.5994C28.2986 17.3587 27.9892 17.216 27.6612 17.2028C27.3332 17.1897 27.0133 17.3071 26.772 17.5292L21.0841 22.7785C19.1511 23.5016 17.4319 24.6989 16.0851 26.26C14.7383 27.8211 13.8073 29.6956 13.378 31.7104C12.9488 33.7253 13.0351 35.8156 13.6291 37.7884C14.223 39.7612 15.3054 41.5529 16.7764 42.9981C18.2474 44.4432 20.0595 45.4954 22.0455 46.0573C24.0315 46.6193 26.1273 46.6729 28.1396 46.2133C30.1518 45.7537 32.0156 44.7957 33.5589 43.4276C35.1022 42.0596 36.2752 40.3256 36.9697 38.3858L40.0562 35.5453C40.1841 35.4372 40.2887 35.3045 40.3638 35.155C40.4389 35.0055 40.4829 34.8424 40.4931 34.6754C40.5033 34.5085 40.4795 34.3413 40.4231 34.1838C40.3668 34.0263 40.2791 33.8818 40.1652 33.7591C40.0514 33.6364 39.9138 33.5379 39.7608 33.4697C39.6078 33.4015 39.4426 33.3649 39.275 33.3621C39.1075 33.3594 38.9411 33.3905 38.7859 33.4537C38.6307 33.5168 38.49 33.6107 38.3722 33.7296L30.9012 40.6281C30.6599 40.8502 30.34 40.9676 30.012 40.9544C29.684 40.9413 29.3746 40.7986 29.152 40.5578C28.9294 40.3171 28.8118 39.9979 28.825 39.6706C28.8382 39.3432 28.9811 39.0345 29.2224 38.8124L43.9194 25.2236C44.0385 25.1136 44.1348 24.9813 44.2027 24.8342C44.2705 24.6871 44.3087 24.5281 44.315 24.3662C44.3213 24.2044 44.2956 24.0429 44.2393 23.891C44.1831 23.7391 44.0974 23.5997 43.9872 23.4808C43.8769 23.3619 43.7443 23.2659 43.5969 23.1982C43.4495 23.1304 43.2901 23.0923 43.1279 23.086C42.9658 23.0798 42.8039 23.1054 42.6517 23.1616C42.4994 23.2177 42.3598 23.3032 42.2406 23.4132L29.0451 35.5765C28.7273 36.4097 28.1327 37.109 27.3606 37.5577C26.5884 38.0063 25.6855 38.1772 24.8024 38.0417C23.9192 37.9062 23.1094 37.4727 22.5079 36.8133C21.9065 36.154 21.5498 35.3088 21.4974 34.4188C21.445 33.5287 21.7001 32.6476 22.2201 31.9226C22.7401 31.1975 23.4935 30.6724 24.3547 30.4347C25.2158 30.197 26.1326 30.2612 26.9521 30.6166C27.7715 30.9719 28.4441 31.597 28.8575 32.3874L46.4584 16.1402C46.6997 15.918 46.8426 15.6093 46.8558 15.282C46.869 14.9547 46.7514 14.6355 46.5288 14.3947C46.3062 14.154 45.9968 14.0113 45.6688 13.9981C45.3408 13.985 45.0209 14.1024 44.7796 14.3245H44.7848ZM26.7303 41.1119C26.8252 41.0931 26.9235 41.1058 27.0104 41.1481C27.0973 41.1903 27.168 41.2597 27.2117 41.3457C27.2555 41.4318 27.2698 41.5297 27.2525 41.6246C27.2352 41.7195 27.1873 41.8062 27.1161 41.8714C27.0577 41.9288 26.9831 41.9669 26.9024 41.9807C24.9231 42.3675 22.8705 41.9887 21.1608 40.9212C19.4511 39.8537 18.2121 38.1773 17.6952 36.232C17.6802 36.1756 17.6764 36.1169 17.6841 36.059C17.6918 36.0012 17.7108 35.9455 17.7401 35.895C17.7694 35.8445 17.8084 35.8003 17.8548 35.7648C17.9012 35.7294 17.9542 35.7034 18.0107 35.6883C18.0671 35.6733 18.126 35.6695 18.184 35.6772C18.2419 35.6849 18.2978 35.7039 18.3484 35.7331C18.399 35.7623 18.4433 35.8012 18.4788 35.8476C18.5144 35.8939 18.5404 35.9467 18.5555 36.0031C19.0155 37.7299 20.1156 39.218 21.6331 40.1664C23.1507 41.1148 24.9726 41.4527 26.7303 41.1119ZM19.2593 30.707C18.863 31.3962 18.5862 32.1472 18.4408 32.9284C18.4233 33.0224 18.3757 33.1082 18.3052 33.173C18.2534 33.2191 18.1918 33.253 18.1249 33.2719C18.0581 33.2908 17.9878 33.2943 17.9194 33.2822C17.8618 33.2716 17.8068 33.2497 17.7576 33.2177C17.7085 33.1857 17.6662 33.1444 17.6333 33.096C17.6003 33.0476 17.5773 32.9931 17.5655 32.9358C17.5538 32.8785 17.5536 32.8194 17.5649 32.762C17.7295 31.8837 18.0415 31.0394 18.4877 30.2648C18.5168 30.2139 18.5558 30.1694 18.6024 30.1337C18.6489 30.098 18.7021 30.0719 18.7589 30.0569C18.8157 30.0419 18.8748 30.0383 18.933 30.0463C18.9911 30.0543 19.0471 30.0737 19.0977 30.1035C19.1933 30.1611 19.2634 30.2529 19.2934 30.3602C19.3234 30.4676 19.3112 30.5823 19.2593 30.681V30.707Z" fill="#00E3BB"/>
</g>
<defs>
<clipPath id="clip0">
<rect width="33.7421" height="33.1396" fill="white" transform="translate(13.125 13.347)"/>
</clipPath>
</defs>
</svg>
