<svg width="152" height="30" viewBox="0 0 152 30" fill="none" xmlns="http://www.w3.org/2000/svg">
<g clip-path="url(#clip0)">
<path d="M3.61199 27.4979L7.92967 2.55233C7.97973 1.91144 8.27205 1.31614 8.74405 0.893863C9.21605 0.471582 9.83023 0.25586 10.4551 0.29291H19.9459C21.0049 0.29291 21.5752 0.836833 21.5752 1.79918C21.5752 2.1339 21.453 2.51049 21.2493 3.80756C21.1936 4.36494 20.9282 4.87795 20.5098 5.23742C20.0914 5.59689 19.5529 5.77442 19.009 5.73224H13.6323C13.503 5.7229 13.3753 5.76578 13.2764 5.85176C13.1775 5.93773 13.1152 6.05999 13.1028 6.19248L12.1659 11.5565V11.6736C12.1659 11.8828 12.3288 11.9749 12.5732 11.9749H16.8502C17.9092 11.9749 18.4795 12.5105 18.4795 13.5147C18.4169 14.1609 18.3217 14.8033 18.1944 15.4393C18.1346 16.0068 17.8642 16.5288 17.4393 16.8966C17.0145 17.2645 16.4679 17.4499 15.9133 17.4143H11.6771C11.5494 17.4042 11.4222 17.4405 11.318 17.517C11.2137 17.5935 11.139 17.7053 11.1068 17.8327L10.0885 23.6486C10.0622 23.7439 10.0485 23.8424 10.0478 23.9415C10.0478 24.1925 10.17 24.2762 10.4551 24.2762H15.7911C16.8909 24.2762 17.4612 24.7783 17.4612 25.7406C17.4039 26.404 17.2949 27.0616 17.1353 27.7071C17.1177 27.9905 17.0457 28.2676 16.9234 28.5222C16.801 28.7769 16.6308 29.0041 16.4225 29.1908C16.2142 29.3775 15.972 29.52 15.7098 29.6101C15.4477 29.7001 15.1707 29.736 14.895 29.7155H5.40423C4.18224 29.7155 3.57125 29.1298 3.57125 28.0837C3.56452 27.8875 3.57819 27.6912 3.61199 27.4979Z" fill="#0040A3"/>
<path d="M20.2743 29.59C19.3782 29.3808 18.9708 28.9624 18.9708 28.2092C19.0149 27.4753 19.1239 26.7471 19.2967 26.0335C19.3161 25.791 19.3823 25.5548 19.4915 25.3389C19.6007 25.1229 19.7507 24.9314 19.9327 24.7756C20.1147 24.6198 20.3251 24.5028 20.5516 24.4314C20.7781 24.3601 21.0161 24.3357 21.2519 24.3599H25.1622C27.2803 24.3599 28.2579 23.3975 28.4209 22.1005C28.4501 21.7806 28.4636 21.4594 28.4616 21.1382C28.4671 20.6667 28.3757 20.1993 28.1932 19.7667C28.0107 19.334 27.7412 18.9459 27.4025 18.6277L24.3068 15.1883C22.6368 13.4394 21.7814 11.7155 21.7814 9.58162C21.8018 8.7929 21.8973 8.00814 22.0665 7.23853C22.7183 2.76155 26.0176 0.0419004 31.3944 0.0419004C32.8972 -0.0200494 34.4019 0.106416 35.875 0.41848C36.7304 0.669526 37.1784 1.08794 37.1784 1.88291C37.1056 2.60223 36.9831 3.31532 36.8118 4.0168C36.7976 4.25751 36.7363 4.49281 36.6314 4.70856C36.5266 4.92432 36.3803 5.11609 36.2015 5.27238C36.0228 5.42868 35.8151 5.54627 35.591 5.61811C35.3669 5.68995 35.131 5.71454 34.8974 5.69044H30.8648C29.0726 5.69044 28.095 6.52724 27.8913 7.86615C27.8369 8.14157 27.8096 8.42193 27.8099 8.70297C27.8273 9.15125 27.9339 9.59114 28.1231 9.99553C28.3122 10.3999 28.5799 10.7603 28.9097 11.0544L32.0461 14.4017C32.8001 15.167 33.3976 16.0795 33.8033 17.0855C34.209 18.0914 34.4148 19.1706 34.4086 20.2595C34.402 21.0587 34.3339 21.8562 34.2049 22.6444C33.5939 27.2051 30.3353 29.8829 24.8364 29.8829C23.3097 29.9758 21.7778 29.8774 20.2743 29.59Z" fill="#0040A3"/>
<path d="M39.4622 27.498L43.0467 6.73649C43.0861 6.52916 43.1133 6.31957 43.1281 6.10887C43.1281 6.05942 43.1187 6.01042 43.1002 5.96474C43.0818 5.91905 43.0548 5.87758 43.0208 5.84261C42.9867 5.80765 42.9463 5.77987 42.9018 5.76095C42.8574 5.74202 42.8097 5.73229 42.7615 5.73229H39.951C38.8512 5.73229 38.3217 5.18837 38.3217 4.22603C38.3708 3.57532 38.4799 2.93088 38.6475 2.30135C38.6973 1.73466 38.958 1.20952 39.3754 0.835382C39.7927 0.461248 40.3345 0.266951 40.8878 0.292961H53.1158C54.1749 0.292961 54.7451 0.836904 54.7451 1.71557C54.6952 2.42123 54.5862 3.12116 54.4193 3.80762C54.3776 4.35535 54.1278 4.86422 53.7238 5.22435C53.3199 5.58447 52.7942 5.76693 52.2605 5.73229H49.4906C49.3568 5.72207 49.2241 5.76363 49.1186 5.84879C49.0131 5.93396 48.9423 6.05655 48.9204 6.19253L45.2544 27.498C45.01 28.9206 44.2768 29.7156 42.8919 29.7156H41.344C40.122 29.7156 39.3889 29.088 39.3889 28.0419C39.3892 27.8581 39.4139 27.6751 39.4622 27.498Z" fill="#0040A3"/>
<path d="M51.9129 27.4979L56.2306 2.55233C56.2806 1.91144 56.5729 1.31614 57.0449 0.893863C57.5169 0.471582 58.1311 0.25586 58.756 0.29291H68.2467C69.3058 0.29291 69.8761 0.836833 69.8761 1.79918C69.8761 2.1339 69.7539 2.51049 69.5502 3.80756C69.4944 4.36494 69.2291 4.87795 68.8107 5.23742C68.3923 5.59689 67.8538 5.77442 67.3099 5.73224H61.9332C61.8039 5.7229 61.6762 5.76578 61.5773 5.85176C61.4784 5.93773 61.416 6.05999 61.4036 6.19248L60.4668 11.5565V11.6736C60.4668 11.8828 60.6297 11.9749 60.8741 11.9749H65.151C66.2101 11.9749 66.7804 12.5105 66.7804 13.5147C66.7178 14.1609 66.6226 14.8033 66.4952 15.4393C66.4355 16.0068 66.1651 16.5288 65.7402 16.8966C65.3153 17.2645 64.7688 17.4499 64.2142 17.4143H59.978C59.8502 17.4042 59.7231 17.4405 59.6188 17.517C59.5146 17.5935 59.4399 17.7053 59.4077 17.8327L58.3894 23.6486C58.3631 23.7439 58.3494 23.8424 58.3487 23.9415C58.3487 24.1925 58.4709 24.2762 58.756 24.2762H64.092C65.1918 24.2762 65.762 24.7783 65.762 25.7406C65.7048 26.404 65.5958 27.0616 65.4362 27.7071C65.4186 27.9905 65.3466 28.2676 65.2243 28.5222C65.1019 28.7769 64.9317 29.0041 64.7234 29.1908C64.5151 29.3775 64.2729 29.52 64.0107 29.6101C63.7486 29.7001 63.4716 29.736 63.1959 29.7155H53.7051C52.4831 29.7155 51.8722 29.1298 51.8722 28.0837C51.8654 27.8875 51.8791 27.6912 51.9129 27.4979Z" fill="#0040A3"/>
<path d="M86.5493 8.49373L86.142 11.0042C85.9627 12.4447 85.4215 13.8125 84.5716 14.9731C83.7217 16.1336 82.5924 17.047 81.2948 17.6235L83.4536 26.7029C83.5342 27.017 83.5753 27.3405 83.5758 27.6653C83.6001 27.9427 83.5654 28.2221 83.4742 28.4844C83.3831 28.7467 83.2376 28.9855 83.0478 29.1844C82.8581 29.3833 82.6286 29.5375 82.3751 29.6365C82.1217 29.7354 81.8504 29.7766 81.5799 29.7574H79.9913C78.6064 29.7574 77.7918 29.2134 77.5474 27.7908L75.918 19.0461C75.8773 18.9205 75.8366 18.9205 75.7551 18.9205H74.5331C74.5111 18.9178 74.4888 18.9203 74.4678 18.9278C74.4468 18.9352 74.4278 18.9475 74.4121 18.9636C74.3964 18.9797 74.3845 18.9993 74.3772 19.0208C74.37 19.0423 74.3676 19.0653 74.3702 19.0879L72.9038 27.5398C72.8579 28.1458 72.5837 28.7095 72.1394 29.1111C71.6952 29.5128 71.116 29.7206 70.525 29.6904H69.0179C67.7959 29.6904 67.022 29.0628 67.022 28.0168C67.022 27.8494 67.0627 27.6402 67.0627 27.4728L71.2989 2.98749C71.3022 2.37822 71.5175 1.7902 71.9059 1.32978C72.2944 0.86936 72.8304 0.56691 73.417 0.477026C75.211 0.0869989 77.0418 -0.0954694 78.8753 -0.0669277C83.1522 -0.0669277 86.7774 1.23013 86.7774 6.25105C86.7598 7.00367 86.6836 7.75363 86.5493 8.49373ZM78.7286 5.43936C78.1831 5.4347 77.6381 5.47666 77.0993 5.56486C76.7734 5.56486 76.6512 5.69037 76.6105 6.0251L75.2663 13.6067C75.2582 13.6251 75.254 13.6451 75.254 13.6653C75.254 13.6855 75.2582 13.7054 75.2663 13.7239C75.2663 13.9749 75.3885 14.0251 75.6329 14.0251H76.8956C78.6879 14.0251 79.9099 13.272 80.2357 11.4226L80.8467 7.94982C80.8916 7.71522 80.9188 7.47739 80.9282 7.2385C80.8875 5.94143 80.0728 5.42261 78.7286 5.42261V5.43936Z" fill="#0040A3"/>
<path d="M88.1295 15.1632C88.1295 14.4101 89.2374 8.74477 89.2374 8.74477C90.3372 2.21757 93.9217 0.0418701 98.5326 0.0418701C102.402 0.0418701 105.783 1.84101 105.783 6.82009C105.783 7.53139 104.708 13.1967 104.708 13.1967C103.567 19.7239 99.9827 21.9414 95.3799 21.9414C91.4695 21.9414 88.1295 20.1423 88.1295 15.1632ZM98.72 13.9498L99.8768 8.15904C99.8952 7.89438 99.8952 7.6287 99.8768 7.36405C99.8768 5.89961 99.0621 5.43937 97.8809 5.43937C96.496 5.43937 95.4369 6.06697 95.1111 8.03349L93.9542 13.8243C93.8763 14.0961 93.8352 14.3777 93.8321 14.6611C93.8321 16.1255 94.7282 16.5439 95.9094 16.5439C97.3351 16.5021 98.4349 15.9163 98.7607 13.9498H98.72Z" fill="#0040A3"/>
<path d="M105.449 27.4979L109.686 2.55229C109.7 2.23858 109.775 1.93096 109.906 1.64718C110.037 1.36341 110.222 1.10913 110.449 0.899031C110.676 0.688933 110.942 0.527203 111.23 0.423161C111.519 0.319119 111.824 0.274817 112.13 0.292867H113.677C114.899 0.292867 115.633 0.962303 115.633 2.05017C115.633 2.21753 115.633 2.38493 115.633 2.55229L111.315 27.4979C111.07 28.9205 110.337 29.7155 108.952 29.7155H107.405C106.223 29.7155 105.49 29.0879 105.49 28.0418C105.453 27.8632 105.439 27.6803 105.449 27.4979Z" fill="#0040A3"/>
<path d="M134.231 9.28867L132.154 21.2636C130.891 28.4602 126.451 30.0083 121.074 30.0083C119.392 30.0133 117.714 29.8451 116.064 29.5063C115.867 29.4993 115.673 29.4507 115.494 29.3635C115.316 29.2763 115.156 29.1523 115.027 28.9993C114.897 28.8463 114.799 28.6674 114.739 28.4739C114.679 28.2804 114.659 28.0764 114.679 27.8745C114.683 27.5911 114.724 27.3096 114.801 27.0376L118.875 3.01252C118.903 2.40428 119.132 1.82412 119.525 1.36774C119.917 0.911358 120.449 0.606023 121.033 0.502059C122.751 0.162149 124.498 0.00790147 126.247 0.0418185C130.85 0.0418185 134.475 1.2552 134.475 6.56901C134.466 7.48086 134.384 8.39041 134.231 9.28867ZM126.329 5.43932C125.921 5.43932 125.188 5.48114 124.781 5.52298C124.374 5.56482 124.292 5.64849 124.251 5.98322L121.115 24.0251C121.115 24.1087 121.115 24.1506 121.115 24.1924C121.115 24.4435 121.278 24.4854 121.522 24.4854C121.93 24.5272 122.418 24.569 122.826 24.569C123.664 24.6046 124.483 24.3069 125.112 23.738C125.742 23.1691 126.134 22.3728 126.207 21.5146L128.447 8.12548C128.511 7.85157 128.538 7.57009 128.528 7.28866C128.488 5.94138 127.754 5.42257 126.329 5.42257V5.43932Z" fill="#0040A3"/>
<path d="M134.524 29.59C133.628 29.3808 133.221 28.9624 133.221 28.2092C133.265 27.4753 133.374 26.7471 133.547 26.0335C133.566 25.791 133.632 25.5548 133.741 25.3389C133.851 25.1229 134.001 24.9314 134.183 24.7756C134.365 24.6198 134.575 24.5028 134.801 24.4314C135.028 24.3601 135.266 24.3357 135.502 24.3599H139.412C141.53 24.3599 142.508 23.3975 142.671 22.1005C142.7 21.7806 142.714 21.4594 142.712 21.1382C142.717 20.6667 142.626 20.1993 142.443 19.7667C142.261 19.334 141.991 18.9459 141.652 18.6277L138.557 15.1883C136.927 13.4394 136.031 11.7155 136.031 9.58162C136.052 8.7929 136.147 8.00814 136.316 7.23853C136.968 2.76155 140.268 0.0419004 145.644 0.0419004C147.147 -0.0200494 148.652 0.106416 150.125 0.41848C150.94 0.669526 151.428 1.08794 151.428 1.88291C151.356 2.60223 151.233 3.31532 151.062 4.0168C151.048 4.25751 150.986 4.49281 150.881 4.70856C150.776 4.92432 150.63 5.11609 150.451 5.27238C150.273 5.42868 150.065 5.54627 149.841 5.61811C149.617 5.68995 149.381 5.71454 149.147 5.69044H145.115C143.323 5.69044 142.345 6.52724 142.141 7.86615C142.087 8.14157 142.06 8.42193 142.06 8.70297C142.077 9.15125 142.184 9.59114 142.373 9.99553C142.562 10.3999 142.83 10.7603 143.16 11.0544L146.296 14.4017C147.05 15.167 147.648 16.0795 148.053 17.0855C148.459 18.0914 148.665 19.1706 148.659 20.2595C148.652 21.0587 148.584 21.8562 148.455 22.6444C147.844 27.2051 144.585 29.8829 139.086 29.8829C137.56 29.9758 136.028 29.8774 134.524 29.59Z" fill="#0040A3"/>
<path d="M102.533 27.9581C102.329 29.2971 101.718 29.7155 100.292 29.7155H87.9015C86.6796 29.7155 86.15 29.4226 86.15 28.4603C86.15 28.1674 86.3456 27.5648 86.4678 26.8954C86.6714 25.5565 87.3639 25.1381 88.7488 25.1381H101.132C102.313 25.1381 102.842 25.4309 102.842 26.3933C102.842 26.6862 102.655 27.2887 102.533 27.9581Z" fill="#00E3BB"/>
</g>
<defs>
<clipPath id="clip0">
<rect width="151.429" height="30" fill="white"/>
</clipPath>
</defs>
</svg>
