<svg width="40" height="40" viewBox="0 0 40 40" fill="none" xmlns="http://www.w3.org/2000/svg">
                          <path d="M39.4381 36.733L28.3876 25.6823C30.5786 22.8882 31.7722 19.4416 31.7785 15.8909C31.7785 7.13069 24.6515 0.00195312 15.8906 0.00195312C7.12978 0.00195312 0.00195312 7.13069 0.00195312 15.8909C0.00195312 24.6512 7.13055 31.7799 15.8906 31.7799C19.4412 31.7731 22.8876 30.5795 25.6819 28.389L36.7323 39.4396C36.91 39.6173 37.121 39.7582 37.3532 39.8544C37.5854 39.9505 37.8342 40 38.0855 39.9999C38.3368 39.9999 38.5856 39.9504 38.8178 39.8542C39.0499 39.758 39.2608 39.617 39.4385 39.4393C39.6162 39.2615 39.7571 39.0506 39.8532 38.8184C39.9493 38.5862 39.9988 38.3374 39.9988 38.0861C39.9987 37.8348 39.9492 37.5859 39.853 37.3538C39.7568 37.1216 39.6158 36.9107 39.4381 36.733ZM15.8906 27.952C9.23984 27.952 3.82982 22.5411 3.82982 15.8909C3.82982 9.24079 9.23984 3.82989 15.8906 3.82989C22.5414 3.82989 27.9514 9.24002 27.9514 15.8909C27.9514 22.5419 22.5437 27.952 15.8906 27.952Z" fill="white"/>
</svg>
