<?xml version="1.0" encoding="UTF-8" standalone="no"?>
<svg
   width="44"
   height="44"
   viewBox="0 0 44 44"
   fill="none"
   version="1.1"
   id="svg231"
   sodipodi:docname="logo_circle.svg"
   inkscape:version="1.2.2 (732a01da63, 2022-12-09, custom)"
   xmlns:inkscape="http://www.inkscape.org/namespaces/inkscape"
   xmlns:sodipodi="http://sodipodi.sourceforge.net/DTD/sodipodi-0.dtd"
   xmlns="http://www.w3.org/2000/svg"
   xmlns:svg="http://www.w3.org/2000/svg">
  <sodipodi:namedview
     id="namedview233"
     pagecolor="#ffffff"
     bordercolor="#000000"
     borderopacity="0.25"
     inkscape:showpageshadow="2"
     inkscape:pageopacity="0.0"
     inkscape:pagecheckerboard="0"
     inkscape:deskcolor="#d1d1d1"
     showgrid="false"
     inkscape:zoom="12.766667"
     inkscape:cx="29.960836"
     inkscape:cy="30"
     inkscape:window-width="1916"
     inkscape:window-height="969"
     inkscape:window-x="0"
     inkscape:window-y="90"
     inkscape:window-maximized="1"
     inkscape:current-layer="svg231" />
  <circle
     cx="22"
     cy="22"
     r="22"
     fill="#0040a3"
     id="circle220"
     style="stroke-width:0.733333" />
  <g
     clip-path="url(#clip0)"
     id="g224"
     transform="scale(0.73333333)">
    <path
       d="m 37.6423,17.5604 2.2418,-2.0809 c 0.2406,-0.2222 0.3829,-0.5306 0.3956,-0.8575 0.0127,-0.3268 -0.1052,-0.6453 -0.3278,-0.8854 -0.1102,-0.1188 -0.2429,-0.2149 -0.3903,-0.2826 -0.1474,-0.0678 -0.3068,-0.1058 -0.4689,-0.1121 -0.3276,-0.0127 -0.6468,0.105 -0.8874,0.3271 l -2.2418,2.081 c -0.2413,0.2221 -0.3842,0.5308 -0.3974,0.8581 -0.0132,0.3274 0.1044,0.6465 0.327,0.8873 0.2227,0.2408 0.532,0.3834 0.86,0.3966 0.3281,0.0132 0.6479,-0.1042 0.8892,-0.3264 z m 4.9059,12.2778 -1.1417,1.0405 c -0.2413,0.2221 -0.3843,0.5308 -0.3975,0.8581 -0.0132,0.3274 0.1045,0.6465 0.3271,0.8873 0.2226,0.2408 0.532,0.3834 0.86,0.3966 0.328,0.0132 0.6478,-0.1042 0.8891,-0.3264 l 1.1418,-1.0405 c 0.2406,-0.2221 0.3829,-0.5305 0.3956,-0.8574 0.0127,-0.3268 -0.1052,-0.6453 -0.3278,-0.8854 -0.2226,-0.2401 -0.5317,-0.3821 -0.8593,-0.3947 -0.3275,-0.0127 -0.6467,0.105 -0.8873,0.3271 z m 2.2366,-15.5137 -15.724,14.5408 c -0.1191,0.1104 -0.2589,0.1962 -0.4113,0.2527 -0.1523,0.0564 -0.3144,0.0823 -0.4768,0.0763 -0.1624,-0.006 -0.3221,-0.0439 -0.4698,-0.1115 -0.1477,-0.0676 -0.2807,-0.1636 -0.3913,-0.2825 -0.1105,-0.1189 -0.1966,-0.2583 -0.2531,-0.4104 -0.0566,-0.152 -0.0826,-0.3137 -0.0765,-0.4758 0.006,-0.162 0.044,-0.3214 0.1117,-0.4688 0.0678,-0.1474 0.164,-0.2801 0.2831,-0.3904 l 6.8089,-6.2794 c 0.2413,-0.2221 0.3843,-0.5308 0.3974,-0.8581 0.0132,-0.3274 -0.1044,-0.6465 -0.327,-0.8873 -0.2226,-0.2407 -0.532,-0.3834 -0.86,-0.3966 -0.328,-0.0132 -0.6479,0.1042 -0.8892,0.3264 l -9.9422,9.1771 c -0.1191,0.1103 -0.2589,0.1962 -0.4112,0.2526 -0.1524,0.0565 -0.3144,0.0824 -0.4769,0.0764 -0.1624,-0.0061 -0.322,-0.044 -0.4698,-0.1116 -0.1477,-0.0676 -0.2807,-0.1636 -0.3912,-0.2824 -0.1106,-0.1189 -0.1966,-0.2584 -0.2532,-0.4104 -0.0566,-0.1521 -0.0826,-0.3137 -0.0765,-0.4758 0.006,-0.1621 0.044,-0.3214 0.1118,-0.4688 0.0677,-0.1474 0.1639,-0.2801 0.283,-0.3905 l 7.5701,-6.9816 c 0.2413,-0.2222 0.3842,-0.5309 0.3974,-0.8582 0.0132,-0.3273 -0.1044,-0.6465 -0.327,-0.8873 -0.2226,-0.2407 -0.532,-0.3834 -0.86,-0.3966 -0.328,-0.0131 -0.6479,0.1043 -0.8892,0.3264 l -5.6879,5.2493 c -1.933,0.7231 -3.6522,1.9204 -4.999,3.4815 -1.3468,1.5611 -2.2778,3.4356 -2.7071,5.4504 -0.4292,2.0149 -0.3429,4.1052 0.2511,6.078 0.5939,1.9728 1.6763,3.7645 3.1473,5.2097 1.471,1.4451 3.2831,2.4973 5.2691,3.0592 1.986,0.562 4.0818,0.6156 6.0941,0.156 2.0122,-0.4596 3.876,-1.4176 5.4193,-2.7857 1.5433,-1.368 2.7163,-3.102 3.4108,-5.0418 l 3.0865,-2.8405 c 0.1279,-0.1081 0.2325,-0.2408 0.3076,-0.3903 0.0751,-0.1495 0.1191,-0.3126 0.1293,-0.4796 0.0102,-0.1669 -0.0136,-0.3341 -0.07,-0.4916 -0.0563,-0.1575 -0.144,-0.302 -0.2579,-0.4247 -0.1138,-0.1227 -0.2514,-0.2212 -0.4044,-0.2894 -0.153,-0.0682 -0.3182,-0.1048 -0.4858,-0.1076 -0.1675,-0.0027 -0.3339,0.0284 -0.4891,0.0916 -0.1552,0.0631 -0.2959,0.157 -0.4137,0.2759 l -7.471,6.8985 c -0.2413,0.2221 -0.5612,0.3395 -0.8892,0.3263 -0.328,-0.0131 -0.6374,-0.1558 -0.86,-0.3966 -0.2226,-0.2407 -0.3402,-0.5599 -0.327,-0.8872 0.0132,-0.3274 0.1561,-0.6361 0.3974,-0.8582 l 14.697,-13.5888 c 0.1191,-0.11 0.2154,-0.2423 0.2833,-0.3894 0.0678,-0.1471 0.106,-0.3061 0.1123,-0.468 0.0063,-0.1618 -0.0194,-0.3233 -0.0757,-0.4752 -0.0562,-0.1519 -0.1419,-0.2913 -0.2521,-0.4102 -0.1103,-0.1189 -0.2429,-0.2149 -0.3903,-0.2826 -0.1474,-0.0678 -0.3068,-0.1059 -0.469,-0.1122 -0.1621,-0.0062 -0.324,0.0194 -0.4762,0.0756 -0.1523,0.0561 -0.2919,0.1416 -0.4111,0.2516 L 29.0451,35.5765 c -0.3178,0.8332 -0.9124,1.5325 -1.6845,1.9812 -0.7722,0.4486 -1.6751,0.6195 -2.5582,0.484 -0.8832,-0.1355 -1.693,-0.569 -2.2945,-1.2284 -0.6014,-0.6593 -0.9581,-1.5045 -1.0105,-2.3945 -0.0524,-0.8901 0.2027,-1.7712 0.7227,-2.4962 0.52,-0.7251 1.2734,-1.2502 2.1346,-1.4879 0.8611,-0.2377 1.7779,-0.1735 2.5974,0.1819 0.8194,0.3553 1.492,0.9804 1.9054,1.7708 L 46.4584,16.1402 c 0.2413,-0.2222 0.3842,-0.5309 0.3974,-0.8582 0.0132,-0.3273 -0.1044,-0.6465 -0.327,-0.8873 -0.2226,-0.2407 -0.532,-0.3834 -0.86,-0.3966 -0.328,-0.0131 -0.6479,0.1043 -0.8892,0.3264 z M 26.7303,41.1119 c 0.0949,-0.0188 0.1932,-0.0061 0.2801,0.0362 0.0869,0.0422 0.1576,0.1116 0.2013,0.1976 0.0438,0.0861 0.0581,0.184 0.0408,0.2789 -0.0173,0.0949 -0.0652,0.1816 -0.1364,0.2468 -0.0584,0.0574 -0.133,0.0955 -0.2137,0.1093 -1.9793,0.3868 -4.0319,0.008 -5.7416,-1.0595 -1.7097,-1.0675 -2.9487,-2.7439 -3.4656,-4.6892 -0.015,-0.0564 -0.0188,-0.1151 -0.0111,-0.173 0.0077,-0.0578 0.0267,-0.1135 0.056,-0.164 0.0293,-0.0505 0.0683,-0.0947 0.1147,-0.1302 0.0464,-0.0354 0.0994,-0.0614 0.1559,-0.0765 0.0564,-0.015 0.1153,-0.0188 0.1733,-0.0111 0.0579,0.0077 0.1138,0.0267 0.1644,0.0559 0.0506,0.0292 0.0949,0.0681 0.1304,0.1145 0.0356,0.0463 0.0616,0.0991 0.0767,0.1555 0.46,1.7268 1.5601,3.2149 3.0776,4.1633 1.5176,0.9484 3.3395,1.2863 5.0972,0.9455 z M 19.2593,30.707 c -0.3963,0.6892 -0.6731,1.4402 -0.8185,2.2214 -0.0175,0.094 -0.0651,0.1798 -0.1356,0.2446 -0.0518,0.0461 -0.1134,0.08 -0.1803,0.0989 -0.0668,0.0189 -0.1371,0.0224 -0.2055,0.0103 -0.0576,-0.0106 -0.1126,-0.0325 -0.1618,-0.0645 -0.0491,-0.032 -0.0914,-0.0733 -0.1243,-0.1217 -0.033,-0.0484 -0.056,-0.1029 -0.0678,-0.1602 -0.0117,-0.0573 -0.0119,-0.1164 -6e-4,-0.1738 0.1646,-0.8783 0.4766,-1.7226 0.9228,-2.4972 0.0291,-0.0509 0.0681,-0.0954 0.1147,-0.1311 0.0465,-0.0357 0.0997,-0.0618 0.1565,-0.0768 0.0568,-0.015 0.1159,-0.0186 0.1741,-0.0106 0.0581,0.008 0.1141,0.0274 0.1647,0.0572 0.0956,0.0576 0.1657,0.1494 0.1957,0.2567 0.03,0.1074 0.0178,0.2221 -0.0341,0.3208 z"
       fill="#00e3bb"
       id="path222" />
  </g>
  <defs
     id="defs229">
    <clipPath
       id="clip0">
      <rect
         width="33.7421"
         height="33.139599"
         fill="#ffffff"
         transform="translate(13.125,13.347)"
         id="rect226"
         x="0"
         y="0" />
    </clipPath>
  </defs>
</svg>
