<?xml version="1.0" encoding="UTF-8" standalone="no"?>
<!-- Uploaded to: SVG Repo, www.svgrepo.com, Generator: SVG Repo Mixer Tools -->

<svg
   fill="#000000"
   version="1.1"
   id="Capa_1"
   width="30.000002"
   height="30.000599"
   viewBox="0 0 20.732064 20.732476"
   xml:space="preserve"
   sodipodi:docname="questionMarkInCircularShape.svg"
   inkscape:version="1.2.2 (732a01da63, 2022-12-09, custom)"
   xmlns:inkscape="http://www.inkscape.org/namespaces/inkscape"
   xmlns:sodipodi="http://sodipodi.sourceforge.net/DTD/sodipodi-0.dtd"
   xmlns="http://www.w3.org/2000/svg"
   xmlns:svg="http://www.w3.org/2000/svg"><defs
   id="defs27" /><sodipodi:namedview
   id="namedview25"
   pagecolor="#ffffff"
   bordercolor="#000000"
   borderopacity="0.25"
   inkscape:showpageshadow="2"
   inkscape:pageopacity="0.0"
   inkscape:pagecheckerboard="0"
   inkscape:deskcolor="#d1d1d1"
   showgrid="false"
   inkscape:zoom="12.402653"
   inkscape:cx="20.197292"
   inkscape:cy="23.382094"
   inkscape:window-width="1916"
   inkscape:window-height="1041"
   inkscape:window-x="0"
   inkscape:window-y="18"
   inkscape:window-maximized="1"
   inkscape:current-layer="g20" />
<g
   id="g22"
   transform="translate(-0.005)">
	<g
   id="g20"
   style="fill:#b3b3b3"
   transform="matrix(0.03750068,0,0,0.03750068,0.0048125,0)">
		<path
   d="M 511.9,157.425 C 508.492,131.58 494.843,103.912 471.9,80.962 448.957,58.018 421.295,44.377 395.455,40.968 383.76,39.426 368.148,32.963 358.791,25.784 338.1,9.915 308.889,0 276.434,0 c -32.455,0 -61.665,9.915 -82.351,25.784 -9.357,7.179 -24.97,13.642 -36.665,15.184 -25.845,3.409 -53.501,17.05 -76.445,39.994 -22.944,22.95 -36.592,50.619 -40,76.463 -1.536,11.695 -8.005,27.295 -15.178,36.653 -15.875,20.686 -25.79,49.896 -25.79,82.35 0,32.455 9.915,61.666 25.784,82.352 7.179,9.357 13.642,24.963 15.178,36.652 3.409,25.844 17.056,53.514 40,76.463 22.944,22.943 50.606,36.586 76.445,39.994 11.695,1.543 27.308,8.006 36.665,15.184 20.686,15.869 49.896,25.783 82.351,25.783 32.455,0 61.666,-9.914 82.352,-25.783 9.357,-7.178 24.969,-13.641 36.664,-15.184 25.846,-3.408 53.502,-17.051 76.445,-39.994 22.943,-22.949 36.592,-50.619 40,-76.463 1.537,-11.695 8.006,-27.295 15.178,-36.652 15.869,-20.686 25.783,-49.896 25.783,-82.352 0,-32.454 -9.914,-61.665 -25.783,-82.35 C 519.9,184.72 513.438,169.12 511.9,157.425 Z M 309.525,433.191 c 0,6.764 -5.484,12.24 -12.24,12.24 h -39.652 c -6.756,0 -12.24,-5.477 -12.24,-12.24 v -39.65 c 0,-6.764 5.483,-12.24 12.24,-12.24 h 39.652 c 6.756,0 12.24,5.477 12.24,12.24 z m 74.977,-189.517 c -7.994,12.632 -25.068,29.823 -51.238,51.58 -13.543,11.26 -21.951,20.312 -25.221,27.16 -2.447,5.135 -3.904,13.305 -4.344,24.51 -0.264,6.758 -5.588,12.234 -12.352,12.234 h -33.72 c -6.757,0 -12.301,-3.428 -12.369,-7.65 -0.061,-3.916 -0.098,-6.463 -0.098,-7.643 0,-18.869 3.122,-34.389 9.357,-46.562 6.243,-12.172 18.715,-25.862 37.429,-41.083 18.717,-15.214 29.896,-25.184 33.545,-29.896 5.631,-7.454 8.445,-15.673 8.445,-24.651 0,-12.479 -4.975,-23.164 -14.945,-32.069 C 309.022,160.7 295.6,156.25 278.71,156.25 c -11.604,0 -21.842,2.356 -30.741,7.068 -5.973,3.164 -14.406,10.355 -18.476,15.753 -4.541,6.022 -8.219,13.268 -11.034,21.738 -2.136,6.414 -8.636,11.138 -15.349,10.306 l -34.584,-4.29 c -6.714,-0.833 -11.897,-6.995 -10.698,-13.648 3.978,-22.032 15.098,-41.114 33.354,-57.24 21.53,-19.021 49.792,-28.531 84.786,-28.531 36.824,0 66.107,9.626 87.865,28.874 21.756,19.248 32.639,41.653 32.639,67.216 0.012,14.162 -3.984,27.552 -11.97,40.178 z"
   id="path18"
   style="fill:#999999;fill-opacity:1" />
	</g>
<path
   style="fill:#ffffff;fill-opacity:1;stroke-width:0.0570125"
   d="m 13.654482,19.390769 c -0.319582,-0.13928 -0.333746,-0.189523 -0.295633,-1.048685 0.08769,-1.976807 0.55885,-2.763398 2.775701,-4.633985 1.211163,-1.021985 1.596689,-1.410587 1.80657,-1.820984 0.147126,-0.287687 0.160362,-0.365407 0.160362,-0.941607 0,-0.593979 -0.0101,-0.648577 -0.1863,-1.0067663 -0.334823,-0.68066 -1.023881,-1.1919985 -1.876769,-1.3927202 -0.58348,-0.1373182 -1.626623,-0.08462 -2.148974,0.1085634 -0.787011,0.2910632 -1.437159,0.8873789 -1.811677,1.6616691 -0.120534,0.249197 -0.219153,0.486438 -0.219153,0.527202 0,0.130936 -0.399882,0.521661 -0.572742,0.559627 C 11.093024,11.445439 9.2290235,11.227951 8.9917963,11.135416 8.5845327,10.976555 8.5206635,10.633591 8.7580719,9.8803662 9.2074825,8.454522 10.210037,7.310526 11.645648,6.5854067 12.677845,6.06405 13.556232,5.8789349 14.994299,5.879698 c 2.16106,0.00115 3.678254,0.5335707 4.922866,1.7275649 1.806658,1.7331819 2.080808,4.0882701 0.689972,5.9272261 -0.391607,0.517781 -1.216411,1.32642 -2.348436,2.302414 -1.453943,1.253539 -1.665967,1.568529 -1.770167,2.629815 -0.05812,0.59194 -0.148076,0.793015 -0.416493,0.930959 -0.195871,0.100662 -2.183771,0.09498 -2.417559,-0.0069 z"
   id="path5481"
   transform="scale(0.69106875)" /><path
   style="fill:#ffffff;fill-opacity:1;stroke-width:0.0570125"
   d="m 13.654482,19.392494 c -0.319869,-0.142631 -0.333685,-0.191645 -0.296081,-1.05041 0.08724,-1.992388 0.53973,-2.741077 2.833161,-4.687784 1.208327,-1.02565 1.521904,-1.343805 1.748339,-1.773867 0.149041,-0.28307 0.161581,-0.355557 0.161581,-0.934025 0,-0.563093 -0.01581,-0.660881 -0.154818,-0.9575547 -0.559092,-1.1932281 -2.20983,-1.8098036 -3.774176,-1.4097114 -1.040069,0.2660048 -1.8039,0.9705054 -2.240326,2.0663091 -0.163049,0.409391 -0.417977,0.707485 -0.648299,0.758073 -0.216152,0.04747 -2.1530931,-0.19384 -2.343686,-0.291989 C 8.5721655,10.922021 8.5266867,10.616008 8.7572039,9.8803662 9.3243302,8.0705146 10.911868,6.6209578 12.888641,6.1080129 c 1.772892,-0.4600404 4.101064,-0.2662505 5.554917,0.4623738 0.600309,0.3008558 0.978955,0.5679661 1.475242,1.0406867 0.530104,0.5049332 0.870251,0.9641698 1.143978,1.5444998 0.680508,1.4427498 0.537926,2.9939608 -0.39542,4.3019268 -0.335681,0.470415 -1.247691,1.38079 -2.257393,2.253348 -1.534945,1.326456 -1.77096,1.640751 -1.881608,2.505676 -0.03403,0.265974 -0.07379,0.568105 -0.08836,0.671402 -0.01457,0.103297 -0.09993,0.270059 -0.189685,0.370581 l -0.163188,0.18277 -1.130791,0.01375 c -0.845899,0.01028 -1.173887,-0.0055 -1.30185,-0.06253 z"
   id="path5483"
   transform="scale(0.69106875)" /><path
   style="fill:#ffffff;fill-opacity:1;stroke-width:0.0570125"
   d="m 13.654482,19.392494 c -0.319869,-0.142631 -0.333685,-0.191645 -0.296081,-1.05041 0.05071,-1.15808 0.229051,-1.805927 0.695933,-2.528077 0.360477,-0.557567 0.892827,-1.09522 2.165734,-2.187307 1.303859,-1.118642 1.522474,-1.344654 1.731177,-1.789755 0.132887,-0.283407 0.150062,-0.389547 0.14872,-0.919043 -0.0014,-0.542119 -0.01712,-0.630925 -0.166776,-0.940707 -0.450216,-0.9319176 -1.51945,-1.5088525 -2.796359,-1.5088525 -1.485719,0 -2.607521,0.7414547 -3.163677,2.0910325 -0.207808,0.504271 -0.454446,0.798392 -0.709532,0.846135 C 11.024027,11.450354 9.1339786,11.212084 8.9420659,11.112842 8.5716527,10.921294 8.5261184,10.616285 8.7580719,9.8803662 9.0383121,8.9912488 9.4159549,8.3877638 10.142946,7.6672951 c 0.921622,-0.913354 1.960272,-1.4425453 3.317649,-1.6903393 0.732687,-0.1337546 2.381765,-0.1321752 3.12159,0.00299 1.398626,0.255527 2.413088,0.751454 3.336615,1.6311279 0.727969,0.6934018 1.210256,1.4740298 1.444227,2.3376153 0.140018,0.516803 0.135648,1.664975 -0.0081,2.13797 -0.335794,1.10463 -1.000076,1.923643 -2.941815,3.627046 -1.539313,1.350373 -1.77791,1.669275 -1.884972,2.519406 -0.101126,0.802997 -0.110668,0.838219 -0.277792,1.025396 l -0.163188,0.18277 -1.130791,0.01375 c -0.845899,0.01028 -1.173887,-0.0055 -1.30185,-0.06253 z"
   id="path5485"
   transform="scale(0.69106875)" /><path
   style="fill:#ffffff;fill-opacity:1;stroke-width:0.0570125"
   d="m 13.66908,24.044767 c -0.294108,-0.182356 -0.328145,-0.348994 -0.328145,-1.606526 0,-1.783044 -0.05834,-1.727961 1.803664,-1.702938 l 1.284573,0.01726 0.166258,0.18619 0.166258,0.18619 v 1.297703 c 0,1.802441 0.0796,1.722896 -1.721799,1.720646 -1.042289,-0.0013 -1.236516,-0.01526 -1.370809,-0.09853 z"
   id="path5487"
   transform="scale(0.69106875)" /><path
   style="fill:#ffffff;fill-opacity:1;stroke-width:0.0570125"
   d="m 13.647699,24.035941 c -0.271958,-0.165834 -0.306764,-0.352063 -0.306764,-1.64135 0,-1.730909 -0.06398,-1.670532 1.770259,-1.670532 h 1.262808 l 0.193843,0.193843 0.193843,0.193843 v 1.304304 c 0,1.809665 0.08048,1.728866 -1.721799,1.72855 -1.09295,-1.94e-4 -1.232126,-0.01105 -1.39219,-0.108658 z"
   id="path5489"
   transform="scale(0.69106875)" /><path
   style="fill:#ffffff;fill-opacity:1;stroke-width:0.0570125"
   d="m 13.647699,24.035941 c -0.271958,-0.165834 -0.306764,-0.352063 -0.306764,-1.64135 0,-1.730909 -0.06398,-1.670532 1.770259,-1.670532 h 1.262808 l 0.193843,0.193843 0.193843,0.193843 v 1.304304 c 0,1.809665 0.08048,1.728866 -1.721799,1.72855 -1.09295,-1.94e-4 -1.232126,-0.01105 -1.39219,-0.108658 z"
   id="path5491"
   transform="scale(0.69106875)" /><path
   style="fill:#808080;fill-opacity:1;stroke-width:0.0806279"
   d="m 13.554178,19.338887 -0.233195,-0.126297 0.04561,-0.938795 c 0.09413,-1.937576 0.537629,-2.671749 2.758992,-4.567245 1.147718,-0.97935 1.700755,-1.554613 1.859269,-1.933992 0.18446,-0.441474 0.148712,-1.298499 -0.07403,-1.774697 -0.509303,-1.0888559 -1.841847,-1.6927047 -3.29092,-1.4912962 -1.195193,0.1661214 -2.088216,0.8372747 -2.606824,1.9591642 -0.147537,0.319162 -0.362172,0.668429 -0.476967,0.776149 l -0.208717,0.195855 -0.946966,-0.09934 C 9.0812221,11.202112 8.9093732,11.157324 8.7218264,10.906125 8.5722376,10.705768 8.5676248,10.653565 8.6614271,10.222589 8.9878239,8.7229533 10.135754,7.3379652 11.691047,6.5673262 c 1.088228,-0.539211 1.717115,-0.6655437 3.305745,-0.6640684 1.212353,0.00113 1.461232,0.025206 2.154686,0.2084736 1.185497,0.3133061 1.983354,0.7638549 2.808711,1.5860757 1.099259,1.0950819 1.589821,2.2532277 1.5036,3.5497869 -0.09982,1.501079 -0.740056,2.430047 -3.110168,4.512787 -0.604587,0.531282 -1.207569,1.102612 -1.339962,1.269624 -0.285951,0.360724 -0.518958,0.99214 -0.522619,1.416219 -0.0034,0.392025 -0.185923,0.827129 -0.393645,0.938299 -0.266302,0.14252 -2.261925,0.10671 -2.543217,-0.04564 z"
   id="path6407"
   transform="matrix(0.69106875,0,0,0.69106875,0.005,0)" /><path
   style="fill:#ffffff;fill-opacity:1;stroke-width:0.0806279"
   d="m 13.670551,24.032998 c -0.108597,-0.06014 -0.223966,-0.176774 -0.256374,-0.259184 -0.03241,-0.08241 -0.06147,-0.701122 -0.06459,-1.374915 -0.0054,-1.174256 0.0022,-1.234232 0.184095,-1.445691 l 0.189762,-0.220611 1.362016,0.0101 c 1.759068,0.01305 1.644833,-0.103941 1.644833,1.684459 0,1.299385 -0.0038,1.328932 -0.197905,1.522998 -0.193158,0.193157 -0.227486,0.197836 -1.431146,0.195047 -0.882692,-0.002 -1.289365,-0.03394 -1.43069,-0.112204 z"
   id="path6409"
   transform="matrix(0.69106875,0,0,0.69106875,0.005,0)" /><path
   style="fill:#ffffff;fill-opacity:1;stroke-width:0.0806279"
   d="m 14.230826,19.394529 c -0.920551,-0.09238 -0.897185,-0.06912 -0.842939,-0.839013 0.08141,-1.155389 0.203803,-1.734699 0.485448,-2.297673 0.348127,-0.695864 0.883092,-1.281486 2.355246,-2.578267 1.212984,-1.068485 1.64931,-1.533238 1.792133,-1.90889 0.04414,-0.116093 0.08025,-0.491853 0.08025,-0.835022 0,-0.50828 -0.03837,-0.700944 -0.206992,-1.0393223 C 17.049391,8.201484 14.179965,7.9181882 12.715227,9.3850487 12.506691,9.5938872 12.177533,10.05986 11.983765,10.420545 11.432089,11.44745 11.484546,11.421402 10.255032,11.278945 9.6869509,11.213125 9.1331959,11.125449 9.0244657,11.08411 8.5592036,10.907217 8.5724698,10.271943 9.0625906,9.2584353 9.6323232,8.0803006 10.564938,7.1786518 11.852303,6.5613505 12.924518,6.047215 13.340857,5.9698838 15.037105,5.9698022 c 1.640678,-7.89e-5 2.212863,0.1063429 3.27795,0.6096721 1.384521,0.6542852 2.709627,2.1798891 3.004151,3.4587007 0.1373,0.596155 0.10493,1.539155 -0.07256,2.113805 -0.314689,1.018841 -0.932835,1.753654 -3.359526,3.993579 -1.092505,1.008424 -1.282176,1.302039 -1.413746,2.188495 -0.111853,0.753616 -0.300657,1.056959 -0.657864,1.056959 -0.149671,0 -0.431394,0.01444 -0.626051,0.0321 -0.194657,0.01765 -0.626042,0.0048 -0.958632,-0.02859 z"
   id="path6411"
   transform="matrix(0.69106875,0,0,0.69106875,0.005,0)" /><path
   style="fill:#ffffff;fill-opacity:1;stroke-width:0.0806279"
   d="m 13.670551,24.032998 c -0.108597,-0.06014 -0.223966,-0.176774 -0.256374,-0.259184 -0.03241,-0.08241 -0.06147,-0.701122 -0.06459,-1.374915 -0.0055,-1.181995 0.0012,-1.233018 0.188468,-1.450775 l 0.194135,-0.225696 1.347938,0.0032 c 1.755383,0.0042 1.650165,-0.104326 1.650165,1.701529 0,1.299385 -0.0038,1.328932 -0.197905,1.522998 -0.193158,0.193157 -0.227486,0.197836 -1.431146,0.195047 -0.882692,-0.002 -1.289365,-0.03394 -1.43069,-0.112204 z"
   id="path6413"
   transform="matrix(0.69106875,0,0,0.69106875,0.005,0)" /></g>
</svg>
