<?xml version="1.0" encoding="UTF-8" standalone="no"?>
<svg
   width="16"
   height="19.200003"
   viewBox="0 0 16 19.200003"
   version="1.1"
   id="svg207"
   sodipodi:docname="shield.svg"
   inkscape:version="1.2.2 (732a01da63, 2022-12-09, custom)"
   inkscape:export-filename="shield2.svg"
   inkscape:export-xdpi="96"
   inkscape:export-ydpi="96"
   xmlns:inkscape="http://www.inkscape.org/namespaces/inkscape"
   xmlns:sodipodi="http://sodipodi.sourceforge.net/DTD/sodipodi-0.dtd"
   xmlns="http://www.w3.org/2000/svg"
   xmlns:svg="http://www.w3.org/2000/svg">
  <defs
     id="defs211" />
  <sodipodi:namedview
     id="namedview209"
     pagecolor="#ffffff"
     bordercolor="#000000"
     borderopacity="0.25"
     inkscape:showpageshadow="2"
     inkscape:pageopacity="0.0"
     inkscape:pagecheckerboard="0"
     inkscape:deskcolor="#d1d1d1"
     showgrid="false"
     inkscape:zoom="6.3242016"
     inkscape:cx="35.103245"
     inkscape:cy="2.6880864"
     inkscape:window-width="1916"
     inkscape:window-height="1005"
     inkscape:window-x="0"
     inkscape:window-y="54"
     inkscape:window-maximized="1"
     inkscape:current-layer="svg207" />
  <path
     id="shield_person"
     d="m 7.9999919,10.547805 q -1.4749756,0 -2.4874633,-0.9843038 -1.0124877,-0.9842957 -1.0124877,-2.4182155 0,-1.4339195 1.0124877,-2.4182152 1.0124877,-0.9843038 2.4874633,-0.9843038 1.4749917,0 2.4874791,0.9843038 1.012488,0.9842957 1.012488,2.4182152 0,1.4339198 -1.012488,2.4182155 -1.0124874,0.9843038 -2.4874791,0.9843038 z m 0,-1.9442955 q 0.649992,0 1.0749919,-0.4131599 0.4249918,-0.413168 0.4249918,-1.0450639 0,-0.6318958 -0.4249918,-1.0450556 -0.4249999,-0.4131599 -1.0749919,-0.4131599 -0.6499918,0 -1.0749837,0.4131599 -0.4249919,0.4131598 -0.4249919,1.0450556 0,0.6318959 0.4249919,1.0450639 0.4249919,0.4131599 1.0749837,0.4131599 z m 0,10.5964045 A 1.8903527,1.8377227 0 0 1 7.3750081,19.102698 Q 4.0000411,18.009035 2.0000737,15.05614 9.0270921e-5,12.103236 9.0270921e-5,8.7007255 V 4.1073266 A 1.8699779,1.8179151 0 0 1 0.36258617,3.013663 2.0641256,2.0066574 0 0 1 1.3000739,2.3088552 L 7.3000081,0.12151988 a 2.0224762,1.9661676 0 0 1 1.3999918,0 L 14.699918,2.3088552 a 2.0641256,2.0066574 0 0 1 0.937496,0.7048078 1.8699779,1.8179151 0 0 1 0.362496,1.0936636 v 4.5933989 q 0,3.4025105 -1.999976,6.3554145 -1.999975,2.952895 -5.3749421,4.046558 a 1.8903527,1.8377227 0 0 1 -0.625,0.09722 z m 0,-9.6242608 z m 0,-7.6556539 -5.9999182,2.1873273 v 4.5933989 a 9.2545917,8.9969302 0 0 0 0.3749838,2.5518875 10.959396,10.654271 0 0 0 1.0249917,2.333151 11.261018,10.947495 0 0 1 2.1999834,-0.802024 9.749886,9.4784348 0 0 1 4.7999344,0 11.260992,10.94747 0 0 1 2.199976,0.802024 10.959446,10.654319 0 0 0 1.024991,-2.333151 9.2545917,8.9969302 0 0 0 0.375,-2.5518875 V 4.1073266 Z m 0,12.5163887 A 7.6149102,7.4029003 0 0 0 6.2500244,14.63082 8.8783206,8.6311359 0 0 0 4.6250409,15.1655 8.9473942,8.6982863 0 0 0 6.2000164,16.429291 7.4050879,7.1989193 0 0 0 7.9999919,17.255619 7.4051126,7.1989436 0 0 0 9.7999755,16.429291 8.9472438,8.6981407 0 0 0 11.374959,15.1655 8.8783206,8.6311359 0 0 0 9.7499756,14.63082 7.6149102,7.4029003 0 0 0 7.9999919,14.436388 Z"
     fill="#ffffff"
     style="fill:#ffffff;stroke-width:0.0246493" />
</svg>
