<?xml version="1.0" encoding="UTF-8" standalone="no"?>
<svg
   width="20.000006"
   height="24.000004"
   viewBox="0 0 20.000006 24.000004"
   version="1.1"
   id="svg207"
   sodipodi:docname="shield.svg"
   inkscape:version="1.2.2 (732a01da63, 2022-12-09, custom)"
   inkscape:export-filename="shield2.svg"
   inkscape:export-xdpi="96"
   inkscape:export-ydpi="96"
   xmlns:inkscape="http://www.inkscape.org/namespaces/inkscape"
   xmlns:sodipodi="http://sodipodi.sourceforge.net/DTD/sodipodi-0.dtd"
   xmlns="http://www.w3.org/2000/svg"
   xmlns:svg="http://www.w3.org/2000/svg">
  <defs
     id="defs211" />
  <sodipodi:namedview
     id="namedview209"
     pagecolor="#ffffff"
     bordercolor="#000000"
     borderopacity="0.25"
     inkscape:showpageshadow="2"
     inkscape:pageopacity="0.0"
     inkscape:pagecheckerboard="0"
     inkscape:deskcolor="#d1d1d1"
     showgrid="false"
     inkscape:zoom="1.0607595"
     inkscape:cx="-34.409308"
     inkscape:cy="-53.735083"
     inkscape:window-width="1916"
     inkscape:window-height="1041"
     inkscape:window-x="0"
     inkscape:window-y="18"
     inkscape:window-maximized="1"
     inkscape:current-layer="svg207" />
  <path
     id="shield_person"
     d="m 9.9999928,13.18476 q -1.84372,0 -3.10933,-1.23038 -1.26561,-1.23037 -1.26561,-3.0227702 0,-1.7924 1.26561,-3.02277 1.26561,-1.23038 3.10933,-1.23038 1.8437402,0 3.1093502,1.23038 1.26561,1.23037 1.26561,3.02277 0,1.7924002 -1.26561,3.0227702 -1.26561,1.23038 -3.1093502,1.23038 z m 0,-2.43037 q 0.8124902,0 1.3437402,-0.51645 0.53124,-0.5164602 0.53124,-1.3063302 0,-0.78987 -0.53124,-1.30632 -0.53125,-0.51645 -1.3437402,-0.51645 -0.81249,0 -1.34373,0.51645 -0.53124,0.51645 -0.53124,1.30632 0,0.78987 0.53124,1.3063302 0.53124,0.51645 1.34373,0.51645 z m 0,13.24551 a 2.3629416,2.297154 0 0 1 -0.78123,-0.12152 Q 5.0000528,22.5113 2.5000928,18.82018 1.1283984e-4,15.12905 1.1283984e-4,10.87591 V 5.1341598 A 2.337473,2.2723945 0 0 1 0.45323284,3.7670798 2.5801578,2.5083225 0 0 1 1.6250928,2.8860698 l 7.49992,-2.73416996 a 2.528096,2.4577102 0 0 1 1.7499902,0 l 7.4999,2.73416996 a 2.5801578,2.5083225 0 0 1 1.17187,0.88101 2.337473,2.2723945 0 0 1 0.45312,1.36708 V 10.87591 q 0,4.25314 -2.49997,7.94427 -2.49997,3.69112 -6.71868,5.0582 A 2.3629416,2.297154 0 0 1 9.9999928,23.9999 Z m 0,-12.03033 z m 0,-9.5695702 -7.4999,2.73416 V 10.87591 a 11.568243,11.246166 0 0 0 0.46873,3.18986 13.699249,13.317843 0 0 0 1.28124,2.91644 14.076276,13.684373 0 0 1 2.74998,-1.00253 12.187361,11.848047 0 0 1 5.9999202,0 14.076244,13.684341 0 0 1 2.74997,1.00253 13.699311,13.317903 0 0 0 1.28124,-2.91644 11.568243,11.246166 0 0 0 0.46875,-3.18986 V 5.1341598 Z m 0,15.6454902 a 9.5186405,9.2536281 0 0 0 -2.18746,0.24304 11.097904,10.788923 0 0 0 -2.03123,0.66835 11.184246,10.872861 0 0 0 1.96872,1.57974 9.2563626,8.9986517 0 0 0 2.24997,1.03291 9.2563934,8.9986821 0 0 0 2.2499802,-1.03291 11.184058,10.872679 0 0 0 1.96873,-1.57974 11.097904,10.788923 0 0 0 -2.03123,-0.66835 9.5186405,9.2536281 0 0 0 -2.1874802,-0.24304 z"
     fill="#ffffff"
     style="fill:#ffffff;stroke-width:0.0308116" />
</svg>
