<?xml version="1.0" encoding="UTF-8" standalone="no"?>
<svg
   width="16"
   height="19.200003"
   viewBox="0 0 16 19.200003"
   version="1.1"
   id="svg696"
   sodipodi:docname="unshield.svg"
   inkscape:version="1.2.2 (732a01da63, 2022-12-09, custom)"
   xmlns:inkscape="http://www.inkscape.org/namespaces/inkscape"
   xmlns:sodipodi="http://sodipodi.sourceforge.net/DTD/sodipodi-0.dtd"
   xmlns="http://www.w3.org/2000/svg"
   xmlns:svg="http://www.w3.org/2000/svg">
  <defs
     id="defs700" />
  <sodipodi:namedview
     id="namedview698"
     pagecolor="#ffffff"
     bordercolor="#000000"
     borderopacity="0.25"
     inkscape:showpageshadow="2"
     inkscape:pageopacity="0.0"
     inkscape:pagecheckerboard="0"
     inkscape:deskcolor="#d1d1d1"
     showgrid="false"
     inkscape:zoom="1.0461923"
     inkscape:cx="10.514319"
     inkscape:cy="-141.46539"
     inkscape:window-width="1916"
     inkscape:window-height="987"
     inkscape:window-x="0"
     inkscape:window-y="72"
     inkscape:window-maximized="1"
     inkscape:current-layer="svg696" />
  <path
     id="remove_moderator"
     d="m 14.374672,13.327346 -1.266496,-1.486144 a 9.2020472,10.449666 0 0 0 0.401056,-1.594008 7.3594512,8.3572496 0 0 0 0.14776,-1.6659204 V 4.0509378 L 8.591032,1.8936338 5.509232,3.2119858 4.200528,1.7258418 8,0.11984976 a 1.7076517,1.939176 0 0 1 1.182056,0 l 5.065968,2.15730404 a 1.7428179,1.9791101 0 0 1 0.791552,0.695136 1.5788918,1.7929588 0 0 1 0.306072,1.078648 v 4.5303358 a 9.4774672,10.762427 0 0 1 -0.970976,4.7460724 z m 0.21108,5.608984 -2.153032,-2.444944 a 7.3191557,8.3114904 0 0 1 -1.49868,1.390264 8.8642536,10.066074 0 0 1 -1.730872,0.934832 1.5511557,1.7614622 0 0 1 -0.28496,0.07192 2.4738786,2.8092884 0 0 1 -0.327176,0.024 q -0.168872,0 -0.327176,-0.012 A 1.1405382,1.295173 0 0 1 7.978888,18.840482 Q 5.277048,17.80977 3.556728,14.921386 1.836408,12.032994 1.836408,8.5813056 V 4.4584578 L 0.232192,2.6367378 Q 0,2.3730338 0,1.9655458 q 0,-0.407488 0.232192,-0.67116 0.232184,-0.263672 0.591024,-0.263672 0.35884,0 0.591032,0.263672 L 15.767808,17.59401 Q 16,17.857682 16,18.26517 q 0,0.407488 -0.232192,0.67116 -0.232184,0.263672 -0.591024,0.263672 -0.35884,0 -0.591032,-0.263672 z M 7.387864,10.762546 Z m 1.203168,6.256184 a 6.1255937,6.9561049 0 0 0 1.414248,-0.743072 7.0131926,7.964045 0 0 0 1.245376,-1.126592 L 3.525064,6.3760338 v 2.2052398 q 0,2.9003764 1.43536,5.2734084 1.435352,2.373032 3.630608,3.164048 z M 9.329816,7.5505618 Z"
     fill="#ffffff"
     style="stroke-width:0.0224936" />
</svg>
